<?xml version="1.0" encoding="UTF-8"?>
<!DOCTYPE svg PUBLIC "-//W3C//DTD SVG 1.1//EN" "http://www.w3.org/Graphics/SVG/1.1/DTD/svg11.dtd">
<!-- Creator: CorelDRAW 2020 (64-Bit) -->
<svg xmlns="http://www.w3.org/2000/svg" xml:space="preserve" width="297mm" height="210mm" version="1.1" style="shape-rendering:geometricPrecision; text-rendering:geometricPrecision; image-rendering:optimizeQuality; fill-rule:evenodd; clip-rule:evenodd"
viewBox="0 0 29700 21000"
 xmlns:xlink="http://www.w3.org/1999/xlink"
 xmlns:xodm="http://www.corel.com/coreldraw/odm/2003">
 <defs>
  <style type="text/css">
   <![CDATA[
    .str2 {stroke:#137D5F;stroke-width:66;stroke-linecap:round;stroke-linejoin:round;stroke-miterlimit:22.9256}
    .str1 {stroke:#137D5F;stroke-width:66;stroke-linecap:round;stroke-linejoin:round;stroke-miterlimit:22.9256}
    .str0 {stroke:#137D5F;stroke-width:66;stroke-linecap:round;stroke-linejoin:round;stroke-miterlimit:22.9256}
    .fil76 {fill:none}
    .fil69 {fill:#FEFEFE}
    .fil70 {fill:#F8F8F8}
    .fil68 {fill:#D7893C}
    .fil12 {fill:#AB2F2F}
    .fil1 {fill:#F0E640}
    .fil17 {fill:#E4DC3C}
    .fil19 {fill:#E2DA3C}
    .fil16 {fill:#DAD240}
    .fil52 {fill:#52514F}
    .fil45 {fill:#008DD4}
    .fil60 {fill:#13785B}
    .fil56 {fill:#137D5F}
    .fil55 {fill:#158565}
    .fil47 {fill:#27418B}
    .fil46 {fill:#2D4085}
    .fil67 {fill:#302F2D}
    .fil74 {fill:#3B3838}
    .fil41 {fill:#454441}
    .fil58 {fill:#474747}
    .fil43 {fill:#486791}
    .fil40 {fill:#4E4D49}
    .fil15 {fill:#4F2B1B}
    .fil44 {fill:#4F382E}
    .fil42 {fill:#5173A3}
    .fil14 {fill:#523A30}
    .fil10 {fill:#543C31}
    .fil49 {fill:#5575A1}
    .fil63 {fill:#5576A3}
    .fil39 {fill:#597BAB}
    .fil59 {fill:#636363}
    .fil73 {fill:#82858E}
    .fil72 {fill:#899496}
    .fil35 {fill:#C0B6D1}
    .fil75 {fill:#D23844}
    .fil0 {fill:#D3C8E6}
    .fil61 {fill:#D6D6D6}
    .fil9 {fill:#E68C71}
    .fil65 {fill:#E89682}
    .fil38 {fill:#EBEDEA}
    .fil54 {fill:#ECEEEE}
    .fil18 {fill:#EE8E76}
    .fil11 {fill:#EFA288}
    .fil6 {fill:#F08D76}
    .fil51 {fill:#F0987A}
    .fil37 {fill:#F0F0F0}
    .fil48 {fill:#F1F0F0}
    .fil2 {fill:#F28E77}
    .fil33 {fill:#F29579}
    .fil8 {fill:#F5977A}
    .fil53 {fill:whitesmoke}
    .fil7 {fill:#F78B6B}
    .fil50 {fill:#F79C7E}
    .fil34 {fill:#F7B6A3}
    .fil57 {fill:#F7F4F4}
    .fil31 {fill:#F8836F}
    .fil62 {fill:#F99E81}
    .fil4 {fill:#FA9B7D}
    .fil77 {fill:#FAA082}
    .fil66 {fill:#FAA487}
    .fil71 {fill:#FAA589}
    .fil5 {fill:#FCA186}
    .fil64 {fill:#FE8968}
    .fil3 {fill:#FFA98F}
    .fil13 {fill:#FFFEFD}
    .fil36 {fill:white}
    .fil29 {fill:#1F0317;fill-rule:nonzero}
    .fil24 {fill:#23031B;fill-rule:nonzero}
    .fil28 {fill:#4B69C2;fill-rule:nonzero}
    .fil23 {fill:#4F6ECC;fill-rule:nonzero}
    .fil30 {fill:#BE5443;fill-rule:nonzero}
    .fil27 {fill:#D1CADC;fill-rule:nonzero}
    .fil25 {fill:#DE4D33;fill-rule:nonzero}
    .fil20 {fill:#E19178;fill-rule:nonzero}
    .fil22 {fill:#F3F2F7;fill-rule:nonzero}
    .fil26 {fill:white;fill-rule:nonzero}
    .fil32 {fill:url(#id0)}
    .fil21 {fill:url(#id1)}
   ]]>
  </style>
  <linearGradient id="id0" gradientUnits="userSpaceOnUse" x1="21133.49" y1="6034.95" x2="21131.45" y2="5685.29">
   <stop offset="0" style="stop-opacity:1; stop-color:#DA4C2D"/>
   <stop offset="0.501961" style="stop-opacity:1; stop-color:#D84B2C"/>
   <stop offset="1" style="stop-opacity:1; stop-color:#D8442C"/>
  </linearGradient>
  <linearGradient id="id1" gradientUnits="userSpaceOnUse" xlink:href="#id0" x1="22754.8" y1="6144.87" x2="22824.37" y2="5802.2">
  </linearGradient>
 </defs>
 <g id="Слой_x0020_1">
  <metadata id="CorelCorpID_0Corel-Layer"/>
  <rect class="fil0" x="1.36" y="1893.84" width="29696.86" height="16762.11"/>
  <path class="fil1" d="M20685.55 4243.27c0,0 27.44,-124.5 37.84,-158.01 69.09,-222.4 422.15,-1064.19 1784.78,-952.45 1567.99,128.58 1379.26,1808.97 1197.87,2222.11 -414.07,-554.69 -743.08,-838.78 -1196.23,-1059.52 -487.02,-237.23 -1072.92,-181.26 -1824.26,-52.13z"/>
  <path class="fil2" d="M20587.28 5830.38c0,0 -195.12,-52.92 -314.19,97.56 -119.07,150.48 -140.58,506.02 47.93,654.85 188.51,148.83 277.44,50 277.44,50l-11.18 -802.41z"/>
  <path class="fil3" d="M20456.27 6039.72c0,0 -227.92,194.79 -34.03,390.35 0,0 68.63,1.35 76.48,-58.55 7.85,-59.91 79.38,-298.48 -42.45,-331.8z"/>
  <path class="fil4" d="M23328.54 5229.16c0,0 304.27,1190.64 13.23,1613.97 -291.04,423.33 -734.22,39.68 -939.27,33.07 -205.05,-6.61 -621.77,66.28 -1177.4,-59.53 -555.63,-125.81 -806.98,-59.53 -806.98,-59.53 0,0 46.3,-932.67 52.91,-1134.41 6.61,-201.74 13.23,-390.26 13.23,-390.26 0,0 601.91,-1537.91 2844.28,-3.31z"/>
  <path class="fil5" d="M23663.81 6018.01c0,0 350.74,-89.28 403.66,261.29 52.92,350.57 -44.52,673.15 -492.79,697.84l-42.17 0.82c0,0 -104.06,-373.67 -56.29,-560.55 47.77,-186.88 104.17,-345.6 104.17,-345.6l83.42 -53.8z"/>
  <path class="fil6" d="M24080.1 6470.37c0,0 -97.96,171.97 -268.29,213.31 -170.33,41.34 -279.47,-23.15 -279.47,-23.15l0.17 317.43c0,0 504.2,56.31 547.59,-507.59z"/>
  <path class="fil7" d="M23330.19 6881.17c0,0 -327.98,-498.59 -877,-257.15 -549.02,241.44 730.91,608.55 877,257.15z"/>
  <path class="fil7" d="M20464.35 6712.95c139.03,-129.28 405.07,-292.33 767.47,-132.96 476.97,209.76 -426.35,514.25 -767.47,360.17l0 -227.21z"/>
  <path class="fil8" d="M23438.67 5436.08c0,0 26.64,643.43 30.76,665.83 4.12,22.38 -304.72,-464.75 -1487.81,-613.64 -824.72,-103.79 -1399.48,310.59 -1399.48,310.59 0,0 32.87,-429.03 178.02,-751.72 65.56,-145.76 194.88,-250.79 283.22,-318 278.42,-211.86 1693.69,-405.75 2391.08,468.76 13.8,17.3 -9.05,220.17 4.21,238.18z"/>
  <path class="fil4" d="M23006.76 7996.29c0,0 -6.62,418.38 33.07,418.38 39.69,0 214.98,33.08 214.98,99.22 0,66.14 -317.51,720.98 -1114.57,687.91 -797.06,-33.07 -982.18,-769.08 -982.18,-769.08l185.12 -37.9 22.2 -339.99c0,0 1356.95,-88.32 1641.38,-58.54z"/>
  <path class="fil9" d="M23006.72 7999.03l-0.29 31.73 -0.03 56.24c-0.09,159.37 -610.7,268.95 -781.87,284.25 -257.4,23.01 -592.74,-30.34 -871.26,-131l5.9 -90.36c0,0 1581.52,-315.01 1647.55,-150.86z"/>
  <path class="fil10" d="M23418.94 5249.55l232.31 71.24c0,0 34.72,722.63 -4.96,841.7 -39.68,119.07 -105.84,360.5 -105.84,472.95 0,112.45 23.15,267.88 16.54,416.71 -6.61,148.83 -59.54,641.61 -463.04,896.27 -403.5,254.66 -721,287.75 -1319.62,277.83 -598.62,-9.92 -1455.25,-429.94 -1402.33,-1177.39 52.92,-747.45 125.68,-1005.42 125.68,-1005.42 0,0 -25.76,602.85 152.84,612.77 178.6,9.92 687.2,-30.7 750.03,-14.16 58.19,15.31 111.85,120.95 264.11,154.32 117.89,25.84 329.36,8.37 430.43,-127.86 74.42,-100.29 300.74,25.74 404.66,56.78 409.22,122.25 1012.13,303.27 959.6,-603.27 -13.22,-228.19 -40.41,-872.47 -40.41,-872.47z"/>
  <path class="fil11" d="M22704.65 6993.87c-181.83,2.29 -1704.49,-114.39 -1704.49,-114.39 0,0 -19.69,696.92 747.61,743.23 767.3,46.31 941.98,-265.02 956.88,-628.84z"/>
  <path class="fil12" d="M22572.95 7014.18c0,0 -18.86,127.26 -117.95,239.78 -44.01,49.96 -154.28,51.58 -235.34,83.3l50.43 -329.35c98.17,2.61 199.71,4.6 302.86,6.27z"/>
  <path class="fil12" d="M21387.42 7307.63c-281.05,-99.53 -250.87,-383.78 -250.87,-383.78 0,0 63.83,9.05 176.03,21.31 23.31,2.54 48.7,10 76.06,12.78l-1.22 349.69z"/>
  <path class="fil13" d="M22396.07 7010.91c0,0 2.74,143.84 58.96,243.06 -165.26,183.71 -440.34,205.56 -673.95,194.54 -278.4,-13.13 -515.02,-208.08 -515.02,-208.08 29.87,-89.6 52.37,-203.14 46.55,-295.26 220.07,29.06 418.53,40.65 617.29,49.83 150.42,6.95 299.64,12.43 466.17,15.91z"/>
  <ellipse class="fil14" cx="21406.24" cy="7917.14" rx="242.26" ry="138.08"/>
  <path class="fil15" d="M22258.98 5393.38c0,0 603.59,122.37 866.52,352.23l56.22 -155.44c0,0 -327.42,-347.26 -730.91,-439.87l-155.45 188.51 -36.38 54.57z"/>
  <path class="fil15" d="M20465.65 5757.67l116.49 41.19c27.62,-175.37 22.01,-324.94 86.59,-489.38 70.39,-179.24 227.7,-523.44 297.05,-555 94.31,-42.92 -286.1,-10.67 -380.36,134.85 -99.8,97.76 -133.77,593.41 -119.77,868.34z"/>
  <path class="fil16" d="M22356.73 4817.42c0,0 -1105.23,-269.61 -1379.74,-31.48 -274.51,238.13 -350.59,499.41 -572.17,482.87 -221.58,-16.54 -241.43,-185.2 -241.43,-185.2 0,0 4.15,-204.9 169.66,-374.7 170.42,-174.83 506.2,-314.67 777.68,-309.73 238.02,4.33 759.64,6.17 900.5,77.47 261.86,132.56 345.5,340.77 345.5,340.77z"/>
  <path class="fil17" d="M20163.39 5083.61c8.55,17.1 60.31,-191.29 246.79,-373.48 101.68,-99.35 299.23,-197.91 422.94,-231.75 350.57,-95.9 1000.99,-151.29 1298.65,272.05 297.66,423.34 178.68,580.84 598.71,590.76 420.03,9.92 975.56,13.73 975.56,13.73 0,0 -364.35,-709.24 -1253.02,-1103.18 -365.53,-162.04 -858.37,-196.26 -1298.37,-128.53 -685.21,105.48 -1242.33,458.22 -991.26,960.4z"/>
  <path class="fil3" d="M23915.99 6478.61c-140.56,175.29 -299.31,23.16 -271.2,-74.41 25.97,-90.15 22.3,-253.7 213.33,-241.54 149.66,9.53 137.54,216.59 57.87,315.95z"/>
  <path class="fil18" d="M23926.9 6187.67c0,0 -265.61,158.49 -182.07,366.94 0,0 -109.34,-42.24 -102.61,-114.92 6.73,-72.68 21.15,-131.76 33.31,-161.35 12.16,-29.59 42.85,-111.52 134.64,-114.77 91.79,-3.25 116.73,24.1 116.73,24.1z"/>
  <path class="fil15" d="M21652.2 5022.87l-22.39 362.22c0,0 -324.44,-0.62 -502.74,37.94 -101.65,21.99 -236.28,89.48 -324.09,143.96l-9.51 -171.03c0,0 178.19,-166.31 386.55,-229.15 208.36,-62.84 310.88,-69.46 310.88,-69.46l64.1 -64.6 17.66 67.83 79.54 -77.71z"/>
  <path class="fil19" d="M20691.06 4214.93c-55.38,43.82 -131.63,112.12 -210.42,194.15 51.77,-49.69 99.63,-91.3 137.66,-121.39 693.98,-169.73 1305.17,-165.6 1761.96,36.89 726.2,321.91 1077.84,821.1 1205.46,1029.35 71.94,0.65 115.52,0.95 115.52,0.95 0,0 -359.56,-709.13 -1248.22,-1103.06 -292.83,-129.81 -682.98,-218.83 -1132.14,-180.85 -251.47,21.27 -380.73,83.04 -629.82,143.96z"/>
  <path class="fil20" d="M22534.81 5792.43c-95.06,57.85 -203.53,229.54 -208.23,337.29l27.84 13.79c28.21,-117.13 70.5,-252.04 180.39,-351.08z"/>
  <path class="fil21" d="M22370.01 6066.75l1.98 0.13c1.42,-1.62 2.85,-3.2 4.29,-4.78 2.16,-7.07 4.39,-14.15 6.73,-21.23 -4.49,8.41 -8.84,17.01 -13,25.88z"/>
  <path class="fil22" d="M23165.6 6153.31c-17.88,30.62 -41.54,57.32 -69.88,79.89 -166.73,134.31 -491.2,125.67 -715.1,-54.48 -14.95,-12.14 -29.79,-25.05 -43.82,-38.79 -3.49,-3.3 -6.76,-6.73 -10.22,-10.21 10.34,-17.72 21.81,-34.2 33.99,-49.34 191.6,-237.42 610.45,-187.07 805.03,72.93z"/>
  <path class="fil23" d="M22943.56 6128.26c-22.26,109.65 -129.17,180.47 -238.82,158.21 -109.62,-22.26 -180.45,-129.17 -158.19,-238.82 9.13,-44.98 32.54,-83.42 64.52,-111.59 94.82,-17.59 197.7,-7.78 293.31,26.84 35.36,45.09 51.48,104.81 39.18,165.36z"/>
  <path class="fil24" d="M22828.95 6104.99c-9.41,46.34 -54.58,76.31 -100.95,66.9 -46.34,-9.41 -76.28,-54.63 -66.87,-100.97 9.41,-46.35 54.61,-76.26 100.95,-66.85 46.36,9.41 76.28,54.58 66.87,100.92z"/>
  <path class="fil25" d="M22380.62 6178.72c-18.73,-15.08 -36.8,-31.44 -54.04,-49 10.34,-17.72 21.81,-34.2 33.99,-49.34 32.77,32.8 42.97,65.38 20.05,98.34z"/>
  <path class="fil26" d="M22676.61 6125.92c1.85,-60.02 -43.07,-65.01 -42.59,-20.66 0.48,44.36 41.1,68.4 42.59,20.66z"/>
  <path class="fil27" d="M22336.8 6139.93c0,-0.03 0,0 0,-0.03 -2.69,-2.65 -5.41,-5.32 -8.07,-8.01 2.68,2.73 5.3,5.43 8.07,8.04l0 0z"/>
  <path class="fil27" d="M22379.42 6102.88c50.33,-38 110.33,-65.45 174.31,-81.49 11.7,-33.76 31.79,-62.87 57.38,-85.38 -97.6,18.11 -186.68,65.26 -250.54,144.37 7.51,7.51 13.82,15.01 18.85,22.5zm716.3 130.32l0 0c28.34,-22.57 52,-49.27 69.88,-79.89 -66.76,-89.21 -159.9,-153.71 -261.2,-190.4 24.73,31.56 40.07,70.28 42.82,111.48 60.6,37.15 112.43,89.7 148.5,158.81z"/>
  <path class="fil28" d="M22553.73 6021.39c54.06,-13.58 110.95,-18.96 167.27,-15.6 12.93,-3.81 26.95,-4.59 41.08,-1.72 9.52,1.93 18.37,5.36 26.29,10.01 2.23,0.43 4.44,0.85 6.66,1.3 53.78,10.92 105.58,30.44 152.19,59.01 -2.75,-41.2 -18.09,-79.92 -42.82,-111.48 -27.78,-10.07 -56.18,-18.03 -84.79,-23.84 -69.92,-14.19 -141.24,-15.54 -208.5,-3.06 -25.59,22.51 -45.68,51.62 -57.38,85.38z"/>
  <path class="fil29" d="M22721 6005.79c22.63,1.33 45.17,4.09 67.37,8.29 -7.92,-4.65 -16.77,-8.08 -26.29,-10.01 -14.13,-2.87 -28.15,-2.09 -41.08,1.72z"/>
  <path class="fil30" d="M22336.8 6139.9c13.24,-13.24 27.5,-25.63 42.62,-37.02 -5.03,-7.49 -11.34,-14.99 -18.85,-22.5l0 0c-12.18,15.14 -23.65,31.62 -33.99,49.34l0 0c0.73,0.72 1.43,1.43 2.15,2.17l0 0c2.66,2.69 5.38,5.36 8.07,8.01z"/>
  <path class="fil31" d="M23148.47 6113.97l18.15 1.21 2.21 -9.82c0,0 -50.42,-225.16 -286.06,-297.73 -235.64,-72.57 -454.67,125.19 -492.33,238.81 0,0 171.21,-155.18 392.55,-120 221.34,35.18 365.48,187.53 365.48,187.53z"/>
  <path class="fil31" d="M20772.26 5924.14l-15.02 8.43 0.2 -10.06c0,0 99.67,-218.26 345.8,-232.66 246.14,-14.41 411.81,229.8 421.34,349.12 0,0 -129.36,-191.47 -352.71,-209.98 -223.35,-18.51 -399.61,95.15 -399.61,95.15z"/>
  <path class="fil24" d="M22326.54 6129.68c181.39,-312.37 643.3,-331.01 875.5,19.53l-47.82 21.85c-295.13,-401.95 -739.93,-211.56 -817.37,-31.12l-10.31 -10.26z"/>
  <path class="fil20" d="M22326.54 6129.68c53.72,55.52 116.87,102.35 186.38,137.59 69.43,35.32 145.62,57.72 223.44,66.18 77.82,6.94 157.76,-0.24 231.47,-27.1 73.49,-26.56 140.63,-72.71 186.39,-135.29 -51.97,57.27 -119.02,98.18 -191.21,121.15 -72.27,23.11 -149.35,30.13 -224.78,21.94 -75.69,-6.64 -149.6,-28.58 -218.87,-60.29 -69.39,-31.75 -133.66,-74.54 -192.82,-124.18z"/>
  <path class="fil20" d="M21417.44 5731.67c82.1,75.13 155.34,264.54 139.12,371.17l-29.98 8.14c-5.04,-120.36 -20.46,-260.91 -109.14,-379.31z"/>
  <path class="fil32" d="M21526.13 6032.66l-1.98 -0.25c-1.07,-1.86 -2.17,-3.7 -3.28,-5.53 -0.76,-7.35 -1.58,-14.72 -2.5,-22.12 2.78,9.12 5.38,18.4 7.76,27.9z"/>
  <path class="fil22" d="M20740.54 5969.61c11.62,33.5 17.95,58.49 41.39,86.11 137.62,164 457.65,218.24 712.14,84.75 17.02,-9.02 34.07,-18.82 50.5,-29.59 4.06,-2.56 7.93,-5.3 11.99,-8.04 -6.72,-19.38 -14.79,-37.77 -23.81,-54.98 -142.1,-269.97 -551.05,-295.74 -792.21,-78.25z"/>
  <path class="fil23" d="M20951.5 5982.16c0.65,111.89 91.86,202.04 203.74,201.39 111.86,-0.65 202.01,-91.86 201.36,-203.75 -0.26,-45.89 -15.8,-88.14 -41.73,-121.95 -89.64,-35.59 -192.48,-45.84 -292.97,-30.35 -43.41,37.4 -70.76,92.88 -70.4,154.66z"/>
  <path class="fil24" d="M21068.44 5981.48c0.28,47.29 38.81,85.43 86.12,85.15 47.29,-0.27 85.4,-38.86 85.13,-86.14 -0.28,-47.29 -38.84,-85.38 -86.13,-85.1 -47.31,0.28 -85.39,38.81 -85.12,86.09z"/>
  <path class="fil25" d="M21494.07 6140.47c21.3,-11.18 42.19,-23.74 62.49,-37.63 -6.72,-19.38 -14.79,-37.77 -23.81,-54.98 -38.49,25.85 -54.8,55.84 -38.68,92.61z"/>
  <path class="fil26" d="M21102.56 6031.09c-9.78,-59.26 -54.82,-55.47 -45.78,-12.04 9.05,43.42 53.55,59.16 45.78,12.04z"/>
  <path class="fil27" d="M21544.57 6110.88c0,-0.03 0,0 0,-0.03 3.15,-2.07 6.34,-4.17 9.47,-6.29 -3.16,2.15 -6.26,4.3 -9.47,6.32l0 0z"/>
  <path class="fil27" d="M21509.91 6066.29c-42.04,-47.01 -95.6,-85.54 -155.28,-113.64 -4.95,-35.39 -19.04,-67.83 -39.79,-94.85 92.25,36.62 170.55,100.1 217.91,190.06 -8.82,5.91 -16.46,12.06 -22.84,18.43zm-727.98 -10.57l0 0c-11.1,-13.08 -19.98,-26.9 -26.89,-41.98 -5.22,-11.38 -9.21,-23.71 -12.34,-36.74 -1.47,-6.15 1.3,-16.1 0.23,-22.7 82.73,-74.63 172.46,-110.38 278.95,-126.8 -30.37,26.18 -52.9,61.22 -63.56,101.11 -66.64,24.73 -127.64,66.27 -176.39,127.11z"/>
  <path class="fil28" d="M21354.63 5952.65c-50.41,-23.77 -105.19,-40.05 -161.1,-47.63 -11.95,-6.24 -25.55,-9.71 -39.97,-9.63 -9.72,0.06 -19.06,1.71 -27.73,4.75 -2.27,-0.01 -4.52,-0.03 -6.79,-0.02 -54.87,0.32 -109.46,9.46 -160.72,28.49 10.66,-39.89 33.19,-74.93 63.56,-101.11 29.2,-4.51 58.6,-6.83 87.79,-7 71.35,-0.42 141.59,12.04 205.17,37.3 20.75,27.02 34.84,59.46 39.79,94.85z"/>
  <path class="fil29" d="M21193.53 5905.02c-22.46,-3.07 -45.1,-4.72 -67.7,-4.88 8.67,-3.04 18.01,-4.69 27.73,-4.75 14.42,-0.08 28.02,3.39 39.97,9.63z"/>
  <path class="fil30" d="M21544.57 6110.85c-10.43,-15.55 -22.02,-30.46 -34.66,-44.56 6.38,-6.37 14.02,-12.52 22.84,-18.43l0 0c9.02,17.21 17.09,35.6 23.81,54.98l0 0c-0.85,0.57 -1.67,1.13 -2.52,1.72l0 0c-3.13,2.12 -6.32,4.22 -9.47,6.29z"/>
  <path class="fil24" d="M21556.61 6102.81c-117.6,-341.54 -514.7,-463.16 -810.26,-164.11l-9.81 44.75c367.25,-337.34 766.87,-64.57 807.98,127.43l12.09 -8.07z"/>
  <path class="fil20" d="M21556.61 6102.81c-63.44,44.09 -134.45,77.83 -209.45,98.97 -74.95,21.24 -154.03,28.49 -232.02,21.75 -77.7,-8.23 -154.75,-30.72 -221.87,-71.33 -52.2,-31.38 -112.38,-79.68 -138.46,-138.95 -4.68,-10.65 -8.98,-20.68 -11.25,-32 39.93,66.23 90.78,121.53 157.17,158.02 66.44,36.64 140.71,58.42 216.3,64.97 75.55,8.1 152.3,0.87 226.4,-16.86 74.21,-17.74 145.55,-47.3 213.18,-84.57z"/>
  <path class="fil33" d="M21868.19 5905.21c0,0 -66.14,492.78 -155.44,446.48 -89.3,-46.3 -304.27,-89.3 -334.04,85.99 -29.77,175.29 1.48,259.87 175.54,328.75 174.06,68.88 439.62,101.21 552.07,-100.54 112.45,-201.75 -181.9,-46.31 -231.51,-56.23 -49.61,-9.92 -99.22,-145.51 -26.46,-201.74 72.76,-56.23 135.6,-456.41 19.84,-502.71z"/>
  <path class="fil34" d="M21512.88 6384.97c0,0 -82.67,-13.23 -74.41,57.88 8.26,71.11 117.41,-23.15 74.41,-57.88z"/>
  <path class="fil9" d="M22122.23 6633.5c0,0 48.96,-119.54 -134.96,-51.3 -183.92,68.24 -337.71,26.89 -390.63,-7.83 -52.92,-34.72 -273.1,-40.82 -191.12,92.87 81.98,133.69 588,285.83 716.71,-33.74z"/>
  <rect class="fil35" x="1.36" y="14959.18" width="29696.86" height="3696.87"/>
  <path class="fil36" d="M23437.07 8467.29c0,0 573.23,239.28 956.88,414.57 383.65,175.29 1311.69,894.83 1596.07,1321.42 270.6,405.93 238.6,1080.67 337.79,1254.47 0.95,1.68 -1366.73,719.61 -1594.98,791.79 0,0 -93.57,-461.22 -265.43,-562.76 -70.75,-41.8 225.61,2035.54 248.39,2406.22 26.43,429.93 222.69,1468.44 222.69,1468.44l-575.47 -33.07 -5056.87 -6.65 90.05 -3020.31c0,0 -19.39,-2.2 -25.77,19.79 -52.37,180.58 -289.34,1023.61 -507.48,976.45 -244.73,-52.91 -244.74,-244.74 -244.74,-244.74 0,0 -615.33,-3184.36 -231.68,-3396.03 383.65,-211.67 1405.66,-992.76 1554.49,-1072.14 148.83,-79.38 800.36,-383.65 1005.42,-287.74 205.06,95.91 1094.69,1835.56 2490.64,-29.71z"/>
  <path class="fil37" d="M23056.2 8415.68l380.87 51.61c-189.12,1260.7 -2395.5,1374.91 -2602.64,11.28l365.08 -54.33c146.29,395.15 354.47,563.48 657.63,633.53 493.2,113.97 1075.92,-111.03 1199.06,-642.09z"/>
  <path class="fil38" d="M19310.56 15275.57l-3.49 221.41c0,0 216.91,74.16 284.5,75.84 67.59,1.68 22.53,-299.46 22.53,-299.46 0,0 -271.21,-55.56 -303.54,2.21z"/>
  <polygon class="fil38" points="19798.89,11351.91 19562.53,13218.13 19383.95,15363.25 19532.34,15259.62 19709.82,13675.85 "/>
  <path class="fil39" d="M25056.78 18656l-5893.61 0 95.92 -3203.93 254.66 -26.47c0,0 39.65,-1865.32 158.71,-2381.26 119.06,-515.94 92.6,-1058.33 105.83,-1336.15 13.23,-277.82 6.63,-632.5 -13.27,-820.23 -19.9,-187.73 -72.76,-760.69 -72.76,-1038.5 0,-277.81 80.62,-903.51 298.28,-1090.08 0,0 183.22,-92.93 358.71,-161.98 140.94,-55.46 273.98,-88.8 325.29,-97.25 0,0 -228.22,393.48 -267.91,605.14 -39.69,211.66 -72.77,949.2 -56.23,1184.02 16.54,234.82 95.89,1432.07 95.89,1432.07l2711.96 19.83 -6.66 -515.94 92.61 -244.74 -43 -234.82 47.93 -269.53c0,0 -3.3,-671.39 79.38,-982.27 82.68,-310.88 177.95,-853.64 354.97,-922.64 171.85,58.97 305.07,128.29 470.17,200.77 91.71,40.26 179.14,82.06 179.14,82.06 0,0 -201.5,165.22 -292.45,520.76 -90.95,355.54 -114.15,934.34 -114.15,934.34l-42.98 512.67 -46.31 208.36 26.46 72.76c0,0 -6.62,128.98 -13.24,257.97 -6.62,128.99 77.68,1059.98 87.61,1304.72 9.93,244.74 407.44,2656.25 425.28,2862.69l636.31 -54.84 57.46 3182.47z"/>
  <path class="fil40" d="M23836.36 10282.73l-558.74 -20.92c-52.89,-1.98 -97.86,37.71 -99.94,88.23l-17.13 417.02c-2.07,50.52 39.51,93.45 92.4,95.43l558.74 20.92c52.89,1.98 97.86,-37.71 99.94,-88.23l17.12 -417.02c2.08,-50.52 -39.5,-93.45 -92.39,-95.43z"/>
  <path class="fil41" d="M23841.13 10884.5l-622.79 -23.31c-35.28,-1.33 -65.27,25.15 -66.66,58.84l-11.42 278.19c-1.39,33.69 26.34,62.33 61.62,63.65l622.79 23.32c35.28,1.32 65.28,-25.16 66.66,-58.85l11.42 -278.19c1.39,-33.69 -26.34,-62.32 -61.62,-63.65z"/>
  <path class="fil40" d="M20320.56 10242.62l-533.27 26.13c-50.48,2.47 -89.76,45.78 -87.29,96.28l20.42 416.84c2.48,50.5 45.8,89.77 96.28,87.3l533.27 -26.13c50.48,-2.47 89.76,-45.78 87.28,-96.28l-20.42 -416.84c-2.47,-50.5 -45.79,-89.77 -96.27,-87.3z"/>
  <path class="fil41" d="M20370.55 10789.68l-594.4 29.12c-33.67,1.65 -59.87,30.55 -58.22,64.22l13.62 278.07c1.65,33.67 30.55,59.87 64.22,58.22l594.4 -29.12c33.67,-1.65 59.86,-30.54 58.21,-64.21l-13.62 -278.08c-1.65,-33.67 -30.55,-59.87 -64.21,-58.22z"/>
  <path class="fil42" d="M20563.23 14557.16c0,0 -765.22,280.42 -1028.77,201.19l12.1 -288.84 919.16 -161.93c0,0 31.72,185.67 97.51,249.58z"/>
  <path class="fil42" d="M24211.32 14520.29l50.08 320.76c0,0 -1355.62,-271.56 -1395.31,-350.93 -39.69,-79.37 338.08,-410.27 1345.23,30.17z"/>
  <rect class="fil43" x="20465.72" y="12495.17" width="2738.45" height="2235.74" rx="423.33" ry="423.33"/>
  <path class="fil44" d="M23549.09 6545.06c0,0 -122.37,96.78 -57.87,409.33 17.77,861.85 -1102.61,1200.65 -1788.28,1131.82 -366.27,-36.77 -873.02,-263.08 -1173.73,-468.43 0,0 289.94,410.46 785.9,531.68 495.96,121.22 1222.32,101.13 1519.28,-62.44 296.96,-163.57 477.94,-237.98 622.74,-582.79 144.8,-344.81 98.84,-607.21 94.3,-670.75 -4.54,-63.54 -10.98,-198.04 -2.34,-288.42z"/>
  <g id="_1330290626944">
   <path class="fil45" d="M22307.88 9733.6c0,0 -419.25,-13.66 -468.61,538.1l508.22 442.68 -39.61 -980.78z"/>
   <path class="fil45" d="M21587.62 10064.75l251.65 206.95c0,0 12.74,375.83 384.13,452.99l-602.86 31.68c0,0 -303.36,-328.63 -32.92,-691.62z"/>
   <path class="fil46" d="M21345.97 10767.77l274.57 -11.4c0,0 85.42,172.91 347.45,161.43 262.02,-11.48 373.68,-177.64 373.68,-177.64 0,0 -32.24,439.22 -396.71,498.82 -396.36,78.52 -606.91,-319.83 -598.99,-471.21z"/>
   <path class="fil47" d="M21814.28 9827.09c30.6,-1.12 60.84,-0.44 90.68,1.81 -29.19,29.98 -47.43,53.78 -53.58,62.13 -11.53,-0.11 -23.11,0 -34.75,0.43 -412.97,15.05 -735.39,366.07 -720.15,784.03 15.23,417.96 362.35,744.58 775.32,729.53 412.96,-15.05 735.38,-366.08 720.15,-784.04 -6.65,-182.4 -76.52,-347.41 -187.48,-474.21l-2.61 -95.16c149.31,142.92 245.52,342.87 253.69,567.06 16.53,453.51 -333.32,834.39 -781.41,850.72 -448.09,16.33 -824.73,-338.07 -841.26,-791.58 -16.53,-453.51 333.31,-834.39 781.4,-850.72z"/>
  </g>
  <path class="fil48" d="M22410.16 7124.96l4.21 18.89c-244.05,81.07 -512.23,103.54 -765.12,50.87 -178.6,-37.2 -348.52,-91.03 -348.52,-91.03l3.08 -17.96c420.58,110.01 679.68,157.65 1106.35,39.23z"/>
  <polygon class="fil49" points="24999.32,15473.53 24761.26,15494.04 24853.12,18655.91 25056.78,18656 "/>
  <path class="fil49" d="M19259.09 15452.07l155.73 -16.19c0,0 -105.89,3220.12 -113.83,3220.12 -7.94,0 -137.82,0 -137.82,0l95.92 -3203.93z"/>
  <path class="fil50" d="M19131.88 11000.29c0,0 254.96,-42.8 280.78,215.31 70.5,704.61 -10.65,2305.49 -474.41,3236.56 -110.44,221.76 -393.87,675.91 -543.59,809.09 -14.99,13.34 -340.75,-754.68 -937.15,-948.36 -414.3,-134.54 -927.87,-778.25 -30.31,-1284.6 155.22,-87.57 214.58,-197.88 248.47,-498.69 32.38,-287.24 115.11,-962.03 148.8,-1007.63 469.25,-635.17 1307.41,-521.68 1307.41,-521.68z"/>
  <polygon class="fil51" points="17737.82,12147.27 17710.57,12235.26 17689.97,12405.74 19384.57,12669.45 19412.28,12355.54 "/>
  <path class="fil36" d="M19876.75 8824.94c0,0 -141.07,72.45 -169.84,248.77 -18.62,114.08 -393.63,597.31 -314.68,761.01 168.11,348.58 99.22,989.91 153.52,1650.52 34.58,420.78 33.33,802.92 -20.07,1016.49 -758.62,-6.85 -1396.24,-108.9 -1978.68,-225.47 0,0 345.29,-1320.43 839.52,-2419.38 216.82,-482.1 1464.53,-1012.43 1490.23,-1031.94z"/>
  <path class="fil52" d="M7747.57 16749.83c0,0 2619.4,961.31 4762.51,414.51 2137.88,-545.47 2841.45,-1639.51 2964.37,-3125.61 56.33,-681.13 25.54,-1507.34 -106.88,-2289.52l-185.77 -1097.24 159.31 -62.52c0,0 143.52,430.48 307.73,939.53 177.84,551.3 149.11,2051.68 91.4,2712.83 -45.87,525.56 -384.6,1498.51 -975.68,2061.21 -1715.89,1633.53 -5011.28,1474.53 -7069.92,724.56l52.93 -277.75z"/>
  <polygon class="fil53" points="7429.41,6131.56 3223.97,6131.56 3768.55,10324.71 7961.69,10324.71 "/>
  <polygon class="fil54" points="3768.55,10324.71 3768.55,15315.79 7966.11,15314.77 7961.69,10324.71 "/>
  <rect class="fil55" x="3768.55" y="15315.79" width="4189.6" height="3340.27"/>
  <ellipse class="fil56" cx="5958.48" cy="12703.43" rx="1649.41" ry="1636.38"/>
  <ellipse class="fil55" cx="5958.48" cy="12703.43" rx="1556.05" ry="1543.76"/>
  <path class="fil57" d="M6096.65 13519.85c0,0 255.94,-368.55 307.12,-581.49 51.19,-212.95 45.04,-384.92 45.04,-384.92l-456.57 935.69c0,0 -366.48,-528.24 -118.75,-892.7 247.73,-364.45 790.31,-653.17 790.31,-653.17 0,0 233.41,868.12 53.23,1191.61 -180.19,323.48 -620.38,384.98 -620.38,384.98z"/>
  <path class="fil36" d="M5867.79 13526.18c0,0 -255.94,-368.54 -307.12,-581.48 -51.19,-212.95 -45.04,-384.93 -45.04,-384.93l456.57 935.69c0,0 366.48,-528.24 118.75,-892.69 -247.73,-364.46 -790.31,-653.18 -790.31,-653.18 0,0 -233.41,868.13 -53.23,1191.62 180.19,323.48 620.38,384.97 620.38,384.97z"/>
  <path class="fil58" d="M3709.14 6541.02c65.5,8.19 3480.62,0 3480.62,0l442.26 3284.07 -3513.4 16.38 -409.48 -3300.45z"/>
  <rect class="fil59" x="4755.37" y="7286.29" width="2219.42" height="638.8" rx="319.4" ry="319.4"/>
  <rect class="fil59" x="5414.64" y="8256.78" width="1666.61" height="638.8" rx="239.84" ry="319.4"/>
  <rect class="fil60" x="2882.34" y="15305.42" width="886.22" height="3350.64"/>
  <path class="fil61" d="M3223.97 6131.56c0,0 -763.4,288.34 -701.98,1239.43 61.41,951.09 360.35,3054.18 360.35,3054.18l0 4890.66 886.21 0 0 -4986.36 -544.58 -4197.91z"/>
  <path class="fil62" d="M24795.52 11896.58c0,0 510.66,962.43 501.81,1219.06 -8.85,256.63 -358.4,1154.84 -522.12,1482.26 -163.71,327.43 -460.16,1097.3 -460.16,1097.3 0,0 -486.71,71.9 -796.44,313.05 -309.73,241.14 -274.32,231.19 -331.84,313.04 -57.52,81.86 -64.15,137.17 -153.75,198.01 -89.6,60.84 -87.39,130.53 -1.11,142.7 86.28,12.16 261.06,-58.63 355.08,-125 94.02,-66.37 219.02,-129.42 235.61,-57.52 16.6,71.9 7.75,69.68 -40.92,306.4 -48.68,236.72 -132.75,546.44 -42.04,561.93 90.71,15.49 201.32,0 214.6,-2.21 13.27,-2.21 97.34,-26.55 146.01,-13.28 48.67,13.28 219.02,-44.24 254.42,-59.73 35.4,-15.48 103.98,-17.7 159.29,0 55.31,17.7 148.23,-4.42 194.69,-22.12 46.46,-17.7 225.66,-4.43 267.7,-19.91 42.03,-15.49 68.58,-26.55 128.32,-128.32 59.73,-101.77 88.48,-219.02 112.82,-296.45 24.34,-77.44 148.26,-570.8 174.81,-657.08 26.55,-86.28 219.02,-365.04 219.02,-365.04 0,0 1201.31,-1818.54 1303.07,-2114.99 101.76,-296.45 164.67,-574.43 110.43,-818.33 -54.24,-243.9 -393.69,-1618.99 -393.69,-1618.99 0,0 -1127.8,658.55 -1635.61,665.22z"/>
  <path class="fil63" d="M22993.91 16611.39c0,0 18.74,147.72 194.03,71.66 53.83,-23.36 137.61,-47.81 181.69,-74.63 99.46,-60.5 115.95,-73.42 145.73,-64.27 42.98,13.22 1.11,233.71 1.11,233.71l114.65 109.14c0,0 198.43,-402.4 68.35,-471.85 -130.08,-69.45 -431.05,1.11 -705.56,196.24z"/>
  <path class="fil50" d="M23518.61 16008.25c-309.72,241.14 -274.32,231.19 -331.84,313.04 -57.52,81.86 -64.15,137.17 -153.75,198.01 -89.6,60.84 -87.39,130.53 -1.11,142.7 86.28,12.16 261.06,-58.63 355.08,-125 94.02,-66.37 219.02,-129.42 235.61,-57.52 16.6,71.9 7.75,69.68 -40.92,306.4 -48.68,236.72 -132.75,546.44 -42.04,561.93 90.71,15.49 201.32,0 214.6,-2.21 13.27,-2.21 97.34,-26.55 146.01,-13.28 48.67,13.28 219.02,-44.24 254.42,-59.73 35.4,-15.48 103.98,-17.7 159.29,0 55.31,17.7 148.23,-4.42 194.69,-22.12 46.46,-17.7 225.66,-4.43 267.7,-19.91 42.03,-15.49 68.58,-26.55 128.32,-128.32 59.73,-101.77 88.48,-219.02 112.82,-296.45 24.34,-77.44 218.91,-746.02 132.78,-670.35 -130.77,114.89 -162.1,294.5 -478.76,474.23 -1165.63,661.63 -346.84,-1228.98 -1152.9,-601.42z"/>
  <path class="fil64" d="M23730.54 17343.37c0,0 87.39,-70.24 100.66,-109.51 13.28,-39.27 52.54,-117.81 75.78,-77.43 23.23,40.37 11.61,58.62 -6.64,87.39 -18.25,28.76 -50.34,85.08 -50.34,85.08l-119.46 14.47z"/>
  <path class="fil64" d="M24165.82 17262.62c0,0 69.69,-204.65 109.51,-216.81 39.83,-12.17 47.57,17.7 40.93,55.31 -6.63,37.61 -64.44,159.83 -64.44,159.83 0,0 -53.92,-11.61 -86,1.67z"/>
  <path class="fil64" d="M24544.67 17243.61c0,0 56.99,-104.88 101.24,-161.29 44.25,-56.42 79.65,-53.1 74.11,-6.64 -5.53,46.45 -66.37,143.8 -66.37,143.8l-11.25 20.23 -97.73 3.9z"/>
  <path class="fil65" d="M25001.94 12318.64c6.2,2.75 66.76,132.35 66.76,132.35l1480.26 -740.88 -47.16 -164.31 -1499.86 772.84z"/>
  <path class="fil36" d="M24348.04 8976.21c150.44,64.66 91.86,-96.79 301.87,81.53 376.06,319.29 1179.36,832.67 1412.21,1273.7 278.03,526.58 303.61,594.15 527.23,1215.64 0.6,1.67 -1479.21,823.86 -1707.46,896.04 0,0 -419.04,-531.37 -520.32,-712.24 -49.67,-88.71 101.92,1078.64 158.87,1253.39 9.29,28.51 -195.93,-435.61 -185.54,-404.99l-289.57 -251.36c18.91,-310.73 130.87,-3425.57 302.71,-3351.71z"/>
  <path class="fil62" d="M18935.01 14461.59c0,0 -301.28,595.42 -387.49,723.13 -86.2,127.71 -242.68,180.5 -315.84,264.54 -73.15,84.05 -231.85,155.79 -337.21,62.04 -105.36,-93.73 -1031.68,-1077.07 -1245.57,-1506.71 -213.89,-429.65 -435.71,-993.54 -500.03,-1167.2 -64.32,-173.65 -511.17,-1310.2 -702.8,-1458.12 -191.63,-147.93 -94.18,-207.66 -241.96,-449.9 -147.78,-242.23 -97.53,-200.92 171.78,-443.82 222.42,-200.6 465.61,-282.45 257.13,-457.89 -57.65,-48.52 -36,8.27 -88.63,-49.21 -84.65,-92.46 -94.49,-182.87 24.19,-128.68 232.73,106.25 114.36,-47.29 331.83,271.68 217.46,318.98 23.75,191.74 180.94,532.71 76.77,166.57 144.03,471.63 187.99,594.61 140.04,391.6 519.38,703.53 908,1079.42 374.76,362.51 963.94,936.93 1306.69,1310.34 334.73,364.65 442.95,789.91 450.98,823.06z"/>
  <path class="fil66" d="M17835.78 15280.36c0,0 123.48,123.48 244.74,74.97 121.26,-48.51 235.93,-145.53 194.03,-61.74 -41.9,83.79 -130.09,158.76 -229.31,165.37 -99.22,6.61 -269,-74.97 -209.46,-178.6z"/>
  <path class="fil42" d="M23400.14 16644.01c0,0 713.62,497.53 1572.79,332.55 0,0 -159.48,1162.36 -728.33,1140.31 -568.85,-22.05 -1258.97,-238.13 -844.46,-1472.86z"/>
  <path class="fil51" d="M17644.37 12722.13c0,0 643.24,568.73 806.4,740.7 163.16,171.97 305.66,559.18 305.66,559.18l-1112.63 -1193.09 -16.34 -45.54 16.91 -61.25z"/>
  <polygon class="fil65" points="24397.9,15493.63 25310.24,15927.41 25217.61,16091.96 25206.59,16113.19 24321.01,15679.76 24330.67,15654.87 "/>
  <polygon class="fil67" points="24404.1,15468.02 25328.35,15908.07 25217.61,16091.96 24330.32,15655.78 "/>
  <ellipse class="fil68" cx="24822.06" cy="15787.34" rx="280.79" ry="254.7"/>
  <ellipse class="fil69" cx="24822.06" cy="15787.34" rx="234.8" ry="212.98"/>
  <path class="fil70" d="M24910.21 15589.81c85.57,31.78 145.86,108.08 145.86,197.15 0,117.63 -105.13,212.98 -234.8,212.98 -55.69,0 -106.85,-17.6 -147.11,-46.99 27.43,10.19 57.45,15.82 88.93,15.82 129.67,0 234.8,-95.35 234.8,-212.98 0,-67.11 -34.22,-126.95 -87.68,-165.98z"/>
  <path class="fil71" d="M16096.38 12249.86c0,0 58.19,282.78 201.61,531.82 143.43,249.04 385.36,777.12 437.21,885.82 51.85,108.7 496.39,926.12 689.69,687.65 193.31,-238.47 -17.38,-790.13 -235.59,-1006.68 -218.21,-216.54 -985.23,-1310.53 -1092.92,-1098.61z"/>
  <path class="fil51" d="M15744.72 10185.12c0,9.92 3.3,239.22 -37.49,255.76 -40.79,16.54 -147.72,35.28 -141.11,39.69 6.61,4.41 78.71,410.61 78.71,410.61l71.62 839.63 54.15 120.96 -1.12 79.86 -43.8 -92.68 -79.07 -15.62 -151.04 -1287.66 11.57 -121.82 136.49 -41.64 33.03 -160.11 68.06 -26.98z"/>
  <path class="fil55" d="M15629.35 10046.63c54.64,19.08 94.75,12.17 94.31,60.41 -0.65,72.09 -6.56,263.95 -50.38,304.05l-59.63 12.44c0,0 52.13,-300.89 15.7,-376.9z"/>
  <path class="fil72" d="M14563.01 9599.68l103.88 42.79c0,0 45.5,-107.72 149.49,-80.44 103.99,27.27 136.87,41.46 136.87,41.46 0,0 232.28,72.52 244.76,126.83 12.47,54.31 -27.02,124.56 -27.02,124.56 0,0 70.77,46.23 65.26,56.03 -5.52,9.8 396.16,136.69 396.16,136.69 0,0 107.45,137.79 -12.44,377.85l-84.97 8.68 23.07 130.15 142.69 1228.3c0,0 47.93,6.52 53.11,64.25 5.17,57.73 19.83,257.33 19.83,257.33 0,0 35.27,-9.2 43.26,85.59 8,94.79 20.84,222.42 20.84,222.42 0,0 -211.14,119.96 -376.54,104.39 -165.39,-15.57 -181.18,-44.87 -181.18,-44.87l-30.71 -283.86 25.21 -35.28 -32.86 -274.32 23.06 -42.94 -11.83 -136.73 11.59 -13.91 -127.23 -1114.26 -17.16 -9.64 -17.24 -120.42 46.96 -33.8 -167.55 -57.64 -150.3 131.6 -67.8 -20.91 -114.24 537.76 -370.91 1114.99c-26.59,41.96 -61.81,150.46 -116.51,133.47 -35.69,-11.07 -96.54,-32.14 -116.99,-52.54 -29.62,-29.55 -25.42,-78.27 -25.42,-78.27l325.91 -676.24 37.04 -542.71 -51.78 -235.1 -34.5 -188.35 27.54 -192.53c0,0 186.21,-139.9 210.54,-200.4 24.33,-60.49 84.26,-232.13 28.11,-489.98z"/>
  <path class="fil55" d="M14187.06 9478.65l375.95 121.03c0,0 162.33,191.22 34.79,433.43 -127.55,242.2 -273.44,256.95 -273.44,256.95l-677.24 -172.14c0,0 -240.79,-191.25 -12.63,-604.8 0,0 96.53,-156.44 245.08,-156.79 97.24,-0.23 250.18,36.41 307.49,122.32z"/>
  <path class="fil73" d="M13744.23 10055.11c-336.06,110.07 -228.35,-745.45 105.28,-640.57 205.27,64.52 85.08,578.23 -105.28,640.57z"/>
  <path class="fil55" d="M15552.99 10535.59c0,0 -169.85,24.43 -178.8,139.8 -8.95,115.37 90.37,896.82 114.94,952.56 24.58,55.74 89.57,91.2 130.97,94.04 41.4,2.85 69.01,-29.66 69.01,-29.66l-136.12 -1156.74z"/>
  <path class="fil74" d="M13644.37 9917.97c115.98,95.03 245.25,-335.21 106.17,-408.88 -80.36,-42.57 -229.68,307.69 -106.17,408.88z"/>
  <path class="fil56" d="M14384.61 10899.03c0,0 -24.26,119.66 -62.89,163.52 -38.63,43.86 -26.97,97.71 -12.46,144.57 14.51,46.86 -14.82,123.9 -74.58,170.93 0,0 -21.13,3.18 -2.16,122.42 18.98,119.24 -19.27,85.91 -63.05,140.85 -43.78,54.95 -9.76,132.12 -15.57,165.4 -5.81,33.29 -67.17,91.78 -74.87,129.38 -7.7,37.6 -38.14,154.87 -44.64,163.57 -6.51,8.71 -14.24,25.32 -14.24,25.32l126.49 42.03c0,0 246.42,-394.63 359.33,-733.21 112.92,-338.58 75.52,-467.11 75.52,-467.11 0,0 -12.99,-61.05 -196.88,-67.67z"/>
  <path class="fil55" d="M14514.63 10917.28c8.07,6.69 136.31,44.37 135.35,90.06 -0.95,45.69 -256.07,1030.96 -420.23,1206.36 0,0 -80.14,-41.75 -86.47,-49.61 -6.33,-7.86 20.47,-6.77 35.64,-64.35 15.17,-57.59 4.73,-119.36 31.04,-147.03 26.31,-27.67 81.97,-120 76.08,-197.49 -5.89,-77.49 43.46,-100.27 85.72,-123.82 42.26,-23.54 -3.41,-137.36 31.59,-201.54 35,-64.18 94.88,-78.9 84.24,-136.47 -10.63,-57.58 -35.26,-120.87 8.47,-183.36 43.73,-62.5 53.42,-106.5 18.57,-192.75z"/>
  <path class="fil75" d="M14324.14 10290.12c0,0 -69.57,53.94 -82.37,128.65 -12.8,74.7 41.77,227.98 58.28,321.09 16.51,93.1 -171.81,227.76 -62.87,258.81 108.95,31.04 138.99,46.51 126.05,37.56 -12.95,-8.95 70.68,-172.14 71.09,-207.71 0.41,-35.57 -39.78,-202.73 -74.79,-267.83 -35,-65.1 -15.63,-160.51 16.15,-187.82 31.78,-27.32 38.94,-35.74 38.94,-35.74l-90.48 -47.01z"/>
  <path class="fil76 str0" d="M14077.21 9502.15c0,0 34.56,152.2 -4.66,311.42 -22.92,93.06 -62.78,187.07 -173.86,271.31"/>
  <path class="fil62" d="M15230.52 9897.87c110.96,126.96 216.37,119.94 223.24,122.29 145.59,49.84 378.73,358.61 409.1,124.44 4.6,-35.47 -47.94,-98.27 -90.66,-158.67 -88.01,-124.43 -274.34,-151.17 -374.47,-197.65 -47.2,-21.9 -84.7,-58.91 -117.74,-62.95 -101.47,-12.41 -133.16,76.77 -49.47,172.54z"/>
  <path class="fil51" d="M15587.61 10579.33c0,0 277.65,-75.98 351.52,-14.24 73.87,61.74 49.33,151.86 -3.58,176.12 -52.91,24.26 -311.79,84.69 -310.61,91.51l9.08 52.37c0,0 231.79,-67.52 310.06,-33.89 78.27,33.63 63.93,111.08 36.37,141.39 -27.56,30.31 -85.15,50.71 -72.2,52.64 12.95,1.93 48.77,25.62 46.57,77.99 -2.2,52.37 -5.23,52.34 -70.28,103.06 -65.05,50.72 -210.59,129.54 -210.59,129.54l-86.34 -776.49z"/>
  <path class="fil50" d="M14906.56 10523.07c26.23,-13.35 114.8,-135.21 340.07,-177.86 114.91,-21.74 207.74,-33.13 270.12,-30.51 67.95,2.85 89.54,38.86 84.23,77.57 -7.61,55.45 -35.12,108.95 -161.21,144.11 -147.43,41.11 -306.87,104.76 -278.57,129.28 28.31,24.53 20.91,39.92 243.53,-22.07 222.62,-61.99 455.02,-100.05 504.97,-81.74 49.94,18.31 92.94,117.83 37.47,158.95 -55.46,41.14 -276.35,82.83 -370.63,121.64 -94.3,38.8 -226.93,105.84 -226.93,105.84 0,0 299.75,-52.64 413.95,-77.37 114.19,-24.71 202.5,-34.64 222.41,36.15 33.05,117.45 -164.85,148.94 -260.76,164.45 -33.82,5.46 -44.08,14.31 -42.12,16.8 11.32,14.45 222.81,-53.01 244.57,-19.01 18.31,28.65 30.35,64.52 15.39,92.94 -28.23,53.63 -449.46,288.25 -449.46,288.25 0,0 8.24,94.78 -46.7,131.19 -54.94,36.41 -180.73,88.27 -180.73,88.27 0,0 -105.04,-98.45 -207.99,-255.47 -102.96,-157.02 -133.89,-179.46 -160.69,-239.57 -26.82,-60.1 -30.07,-117.64 -30.07,-117.64 0,0 -30.77,-50.05 -28.97,-140.87 1.8,-90.83 -26.09,-162.95 -26.09,-162.95 0,0 -8.01,-79.51 28.63,-122.69 36.63,-43.18 65.58,-107.69 65.58,-107.69z"/>
  <path class="fil77" d="M15089.62 10511.96c0,0 10.54,-111.4 183.87,-145.27 173.32,-33.87 267.17,-32.85 276.54,2.63 9.37,35.48 14.42,90.15 -178.82,138.3 -193.23,48.14 -255.44,75.35 -281.59,4.34z"/>
  <path class="fil77" d="M15221.53 10847.56c0,0 -26.93,-100.37 233.93,-178.82 260.86,-78.46 404.62,-83.02 438.62,-50.89 33.99,32.13 31.05,77.18 -137.34,118.91 -168.39,41.74 -344.5,112.05 -410.4,141.74 -65.9,29.69 -127.52,25.73 -124.81,-30.94z"/>
  <path class="fil77" d="M15420.87 10979.4c82.81,-28.95 317.59,-87.31 442.77,-88.07 79.08,-0.5 104.37,30.48 51.97,79.52 -36.54,34.19 -89.28,35.33 -212.15,74.93 -118.44,38.16 -207.28,63.6 -286.29,51.45 -81.8,-12.58 -149.22,-64.38 3.7,-117.83z"/>
  <path class="fil77" d="M15472.36 11380.66c82.18,-27.53 201.55,-88.24 211.44,-95.33 9.87,-7.08 145.91,-75.83 199.28,-115.65 42.26,-31.54 28.38,-87.03 -33.09,-78.39 -104.18,14.62 -348.09,111.29 -473.86,159.87 -131.27,50.7 -12.34,165.84 96.23,129.5z"/>
  <path class="fil76 str1" d="M14243.96 9555.16c0,0 34.56,152.2 -4.66,311.42 -22.92,93.06 -62.78,187.07 -173.86,271.31"/>
  <path class="fil76 str2" d="M14393.89 9599.26c0,0 34.56,152.2 -4.66,311.42 -22.92,93.06 -62.78,187.07 -173.86,271.31"/>
 </g>
</svg>
