<?xml version="1.0" encoding="UTF-8"?>
<!DOCTYPE svg PUBLIC "-//W3C//DTD SVG 1.1//EN" "http://www.w3.org/Graphics/SVG/1.1/DTD/svg11.dtd">
<!-- Creator: CorelDRAW 2017 -->
<svg xmlns="http://www.w3.org/2000/svg" xml:space="preserve" width="297mm" height="210mm" version="1.1" style="shape-rendering:geometricPrecision; text-rendering:geometricPrecision; image-rendering:optimizeQuality; fill-rule:evenodd; clip-rule:evenodd"
viewBox="0 0 29700 21000"
 xmlns:xlink="http://www.w3.org/1999/xlink">
 <defs>
  <style type="text/css">
   <![CDATA[
    .str0 {stroke:#2B2A29;stroke-width:50;stroke-linecap:round;stroke-linejoin:round}
    .fil122 {fill:none}
    .fil91 {fill:none;fill-rule:nonzero}
    .fil71 {fill:#FEFEFE}
    .fil66 {fill:#EBECEC}
    .fil67 {fill:#D9DADA}
    .fil81 {fill:#898989}
    .fil134 {fill:#434242}
    .fil68 {fill:#2B2A29}
    .fil72 {fill:#FFED00}
    .fil74 {fill:#DF494E}
    .fil128 {fill:#F6F4F1}
    .fil131 {fill:#C3282C}
    .fil69 {fill:#D24248}
    .fil130 {fill:#B72325}
    .fil12 {fill:#AB2F2F}
    .fil73 {fill:#C04249}
    .fil126 {fill:#ECEBE7}
    .fil1 {fill:#F0E640}
    .fil17 {fill:#E4DC3C}
    .fil19 {fill:#E2DA3C}
    .fil16 {fill:#DAD240}
    .fil0 {fill:#CADDE0}
    .fil35 {fill:#BED3D6}
    .fil137 {fill:#BBCDD0}
    .fil80 {fill:#ABACAC}
    .fil79 {fill:#A9A6A6}
    .fil135 {fill:#3D3D3D}
    .fil133 {fill:#3C3C3C}
    .fil70 {fill:#117A45}
    .fil132 {fill:#0B8543}
    .fil129 {fill:#0E7D41}
    .fil56 {fill:#008DD4}
    .fil58 {fill:#27418B}
    .fil57 {fill:#2D4085}
    .fil51 {fill:#452D20}
    .fil44 {fill:#454441}
    .fil61 {fill:#474646}
    .fil45 {fill:#486791}
    .fil46 {fill:#4C6E9E}
    .fil43 {fill:#4E4D49}
    .fil76 {fill:#4E4F4B}
    .fil15 {fill:#4F2B1B}
    .fil55 {fill:#4F382E}
    .fil88 {fill:#4F4F51}
    .fil85 {fill:#505044}
    .fil49 {fill:#513424}
    .fil14 {fill:#523A30}
    .fil10 {fill:#543C31}
    .fil75 {fill:#555651}
    .fil48 {fill:#5575A1}
    .fil42 {fill:#597BAB}
    .fil60 {fill:#5A5A5A}
    .fil63 {fill:#5B5B5B}
    .fil136 {fill:#615D56}
    .fil65 {fill:#616060}
    .fil87 {fill:#616160}
    .fil138 {fill:#666666}
    .fil127 {fill:#6C6C6C}
    .fil86 {fill:#6D6D6B}
    .fil64 {fill:#757575}
    .fil53 {fill:#78553C}
    .fil50 {fill:#7F5A40}
    .fil62 {fill:#7F8180}
    .fil124 {fill:#818181}
    .fil125 {fill:#949494}
    .fil123 {fill:#AAA7A2}
    .fil78 {fill:#B7C1CA}
    .fil84 {fill:#E0AD04}
    .fil9 {fill:#E68C71}
    .fil38 {fill:#E98E71}
    .fil18 {fill:#EE8E76}
    .fil11 {fill:#EFA288}
    .fil6 {fill:#F08D76}
    .fil121 {fill:#F0B903}
    .fil37 {fill:#F0F0F0}
    .fil77 {fill:#F0F1F5}
    .fil59 {fill:#F1F0F0}
    .fil2 {fill:#F28E77}
    .fil33 {fill:#F29579}
    .fil47 {fill:#F4F6F3}
    .fil8 {fill:#F5977A}
    .fil52 {fill:#F5977B}
    .fil39 {fill:#F69779}
    .fil7 {fill:#F78B6B}
    .fil54 {fill:#F7A186}
    .fil34 {fill:#F7B6A3}
    .fil31 {fill:#F8836F}
    .fil40 {fill:#F8A186}
    .fil41 {fill:#F8A287}
    .fil4 {fill:#FA9B7D}
    .fil83 {fill:#FBC500}
    .fil5 {fill:#FCA186}
    .fil82 {fill:#FDC202}
    .fil3 {fill:#FFA98F}
    .fil13 {fill:#FFFEFD}
    .fil36 {fill:white}
    .fil106 {fill:#CADDE0;fill-rule:nonzero}
    .fil100 {fill:#22945B;fill-rule:nonzero}
    .fil116 {fill:#219158;fill-rule:nonzero}
    .fil97 {fill:#228F56;fill-rule:nonzero}
    .fil99 {fill:#1F8A54;fill-rule:nonzero}
    .fil98 {fill:#1A804E;fill-rule:nonzero}
    .fil102 {fill:#107A4B;fill-rule:nonzero}
    .fil90 {fill:black;fill-rule:nonzero}
    .fil95 {fill:#1D1A1B;fill-rule:nonzero}
    .fil29 {fill:#1F0317;fill-rule:nonzero}
    .fil24 {fill:#23031B;fill-rule:nonzero}
    .fil89 {fill:#231F20;fill-rule:nonzero}
    .fil117 {fill:#333436;fill-rule:nonzero}
    .fil105 {fill:#3B070A;fill-rule:nonzero}
    .fil93 {fill:#414042;fill-rule:nonzero}
    .fil28 {fill:#4B69C2;fill-rule:nonzero}
    .fil23 {fill:#4F6ECC;fill-rule:nonzero}
    .fil119 {fill:#545456;fill-rule:nonzero}
    .fil107 {fill:#58595B;fill-rule:nonzero}
    .fil120 {fill:#636567;fill-rule:nonzero}
    .fil108 {fill:#6D6E71;fill-rule:nonzero}
    .fil96 {fill:#6D7073;fill-rule:nonzero}
    .fil118 {fill:#70898A;fill-rule:nonzero}
    .fil113 {fill:gray;fill-rule:nonzero}
    .fil110 {fill:#918F90;fill-rule:nonzero}
    .fil92 {fill:#939598;fill-rule:nonzero}
    .fil111 {fill:#A0A0A1;fill-rule:nonzero}
    .fil104 {fill:#A3181D;fill-rule:nonzero}
    .fil112 {fill:#ACACAD;fill-rule:nonzero}
    .fil115 {fill:#B31E23;fill-rule:nonzero}
    .fil114 {fill:#B6B7B8;fill-rule:nonzero}
    .fil103 {fill:#BE1E2D;fill-rule:nonzero}
    .fil30 {fill:#BE5443;fill-rule:nonzero}
    .fil109 {fill:#C2EAE8;fill-rule:nonzero}
    .fil27 {fill:#D1CADC;fill-rule:nonzero}
    .fil101 {fill:#D1D3D4;fill-rule:nonzero}
    .fil25 {fill:#DE4D33;fill-rule:nonzero}
    .fil20 {fill:#E19178;fill-rule:nonzero}
    .fil94 {fill:#E6E7E8;fill-rule:nonzero}
    .fil22 {fill:#F3F2F7;fill-rule:nonzero}
    .fil26 {fill:white;fill-rule:nonzero}
    .fil32 {fill:url(#id0)}
    .fil21 {fill:url(#id1)}
   ]]>
  </style>
  <linearGradient id="id0" gradientUnits="userSpaceOnUse" x1="7851" y1="6035" x2="7853" y2="5685">
   <stop offset="0" style="stop-opacity:1; stop-color:#DA4C2D"/>
   <stop offset="0.501961" style="stop-opacity:1; stop-color:#D84B2C"/>
   <stop offset="1" style="stop-opacity:1; stop-color:#D8442C"/>
  </linearGradient>
  <linearGradient id="id1" gradientUnits="userSpaceOnUse" xlink:href="#id0" x1="6229" y1="6145" x2="6160" y2="5802">
  </linearGradient>
 </defs>
 <g id="Слой_x0020_1">
  <metadata id="CorelCorpID_0Corel-Layer"/>
  <rect class="fil0" x="1" y="1894" width="29697" height="16762"/>
  <path class="fil1" d="M8298 4243c0,0 -27,-125 -38,-158 -69,-222 -422,-1064 -1785,-952 -1568,129 -1379,1809 -1198,2222 414,-555 743,-839 1196,-1060 487,-237 1073,-181 1824,-52z"/>
  <path class="fil2" d="M8397 5830c0,0 195,-53 314,98 119,150 141,506 -48,655 -189,149 -277,50 -277,50l11 -802z"/>
  <path class="fil3" d="M8528 6040c0,0 228,195 34,390 0,0 -69,1 -76,-59 -8,-60 -79,-298 42,-332z"/>
  <path class="fil4" d="M5656 5229c0,0 -304,1191 -13,1614 291,423 734,40 939,33 205,-7 622,66 1177,-60 556,-126 807,-60 807,-60 0,0 -46,-933 -53,-1134 -7,-202 -13,-390 -13,-390 0,0 -602,-1538 -2844,-3z"/>
  <path class="fil5" d="M5320 6018c0,0 -351,-89 -404,261 -53,351 45,673 493,698l42 1c0,0 104,-374 56,-561 -48,-187 -104,-346 -104,-346l-83 -54z"/>
  <path class="fil6" d="M4904 6470c0,0 98,172 268,213 170,41 279,-23 279,-23l0 317c0,0 -504,56 -548,-508z"/>
  <path class="fil7" d="M5654 6881c0,0 328,-499 877,-257 549,241 -731,609 -877,257z"/>
  <path class="fil7" d="M8520 6713c-139,-129 -405,-292 -767,-133 -477,210 426,514 767,360l0 -227z"/>
  <path class="fil8" d="M5545 5436c0,0 -27,643 -31,666 -4,22 305,-465 1488,-614 825,-104 1399,311 1399,311 0,0 -33,-429 -178,-752 -66,-146 -195,-251 -283,-318 -278,-212 -1694,-406 -2391,469 -14,17 9,220 -4,238z"/>
  <path class="fil4" d="M5977 7996c0,0 7,418 -33,418 -40,0 -215,33 -215,99 0,66 318,721 1115,688 797,-33 982,-769 982,-769l-185 -38 -22 -340c0,0 -1357,-88 -1641,-59z"/>
  <path class="fil9" d="M5977 7999l0 32 0 56c0,159 611,269 782,284 257,23 593,-30 871,-131l-6 -90c0,0 -1582,-315 -1648,-151z"/>
  <path class="fil10" d="M5565 5250l-232 71c0,0 -35,723 5,842 40,119 106,361 106,473 0,112 -23,268 -17,417 7,149 60,642 463,896 404,255 721,288 1320,278 599,-10 1455,-430 1402,-1177 -53,-747 -126,-1005 -126,-1005 0,0 26,603 -153,613 -179,10 -687,-31 -750,-14 -58,15 -112,121 -264,154 -118,26 -329,8 -430,-128 -74,-100 -301,26 -405,57 -409,122 -1012,303 -960,-603 13,-228 40,-872 40,-872z"/>
  <path class="fil11" d="M6279 6994c182,2 1704,-114 1704,-114 0,0 20,697 -748,743 -767,46 -942,-265 -957,-629z"/>
  <path class="fil12" d="M6411 7014c0,0 19,127 118,240 44,50 154,52 235,83l-50 -329c-98,3 -200,5 -303,6z"/>
  <path class="fil12" d="M7597 7308c281,-100 251,-384 251,-384 0,0 -64,9 -176,21 -23,3 -49,10 -76,13l1 350z"/>
  <path class="fil13" d="M6588 7011c0,0 -3,144 -59,243 165,184 440,206 674,195 278,-13 515,-208 515,-208 -30,-90 -52,-203 -47,-295 -220,29 -419,41 -617,50 -150,7 -300,12 -466,16z"/>
  <ellipse class="fil14" cx="7578" cy="7917" rx="242" ry="138"/>
  <path class="fil15" d="M6725 5393c0,0 -604,122 -867,352l-56 -155c0,0 327,-347 731,-440l155 189 36 55z"/>
  <path class="fil15" d="M8518 5758l-116 41c-28,-175 -22,-325 -87,-489 -70,-179 -228,-523 -297,-555 -94,-43 286,-11 380,135 100,98 134,593 120,868z"/>
  <path class="fil16" d="M6627 4817c0,0 1105,-270 1380,-31 275,238 351,499 572,483 222,-17 241,-185 241,-185 0,0 -4,-205 -170,-375 -170,-175 -506,-315 -778,-310 -238,4 -760,6 -901,77 -262,133 -346,341 -346,341z"/>
  <path class="fil17" d="M8821 5084c-9,17 -60,-191 -247,-373 -102,-99 -299,-198 -423,-232 -351,-96 -1001,-151 -1299,272 -298,423 -179,581 -599,591 -420,10 -976,14 -976,14 0,0 364,-709 1253,-1103 366,-162 858,-196 1298,-129 685,105 1242,458 991,960z"/>
  <path class="fil3" d="M5068 6479c141,175 299,23 271,-74 -26,-90 -22,-254 -213,-242 -150,10 -138,217 -58,316z"/>
  <path class="fil18" d="M5057 6188c0,0 266,158 182,367 0,0 109,-42 103,-115 -7,-73 -21,-132 -33,-161 -12,-30 -43,-112 -135,-115 -92,-3 -117,24 -117,24z"/>
  <path class="fil15" d="M7332 5023l22 362c0,0 324,-1 503,38 102,22 236,89 324,144l10 -171c0,0 -178,-166 -387,-229 -208,-63 -311,-69 -311,-69l-64 -65 -18 68 -80 -78z"/>
  <path class="fil19" d="M8293 4215c55,44 132,112 210,194 -52,-50 -100,-91 -138,-121 -694,-170 -1305,-166 -1762,37 -726,322 -1078,821 -1205,1029 -72,1 -116,1 -116,1 0,0 360,-709 1248,-1103 293,-130 683,-219 1132,-181 251,21 381,83 630,144z"/>
  <path class="fil20" d="M6449 5792c95,58 204,230 208,337l-28 14c-28,-117 -71,-252 -180,-351z"/>
  <path class="fil21" d="M6614 6067l-2 0c-1,-2 -3,-3 -4,-5 -2,-7 -4,-14 -7,-21 4,8 9,17 13,26z"/>
  <path class="fil22" d="M5818 6153c18,31 42,57 70,80 167,134 491,126 715,-54 15,-12 30,-25 44,-39 3,-3 7,-7 10,-10 -10,-18 -22,-34 -34,-49 -192,-237 -610,-187 -805,73z"/>
  <path class="fil23" d="M6040 6128c22,110 129,180 239,158 110,-22 180,-129 158,-239 -9,-45 -33,-83 -65,-112 -95,-18 -198,-8 -293,27 -35,45 -51,105 -39,165z"/>
  <path class="fil24" d="M6155 6105c9,46 55,76 101,67 46,-9 76,-55 67,-101 -9,-46 -55,-76 -101,-67 -46,9 -76,55 -67,101z"/>
  <path class="fil25" d="M6603 6179c19,-15 37,-31 54,-49 -10,-18 -22,-34 -34,-49 -33,33 -43,65 -20,98z"/>
  <path class="fil26" d="M6307 6126c-2,-60 43,-65 43,-21 0,44 -41,68 -43,21z"/>
  <path class="fil27" d="M6647 6140c0,0 0,0 0,0 3,-3 5,-5 8,-8 -3,3 -5,5 -8,8l0 0z"/>
  <path class="fil27" d="M6605 6103c-50,-38 -110,-65 -174,-81 -12,-34 -32,-63 -57,-85 98,18 187,65 251,144 -8,8 -14,15 -19,23zm-716 130l0 0c-28,-23 -52,-49 -70,-80 67,-89 160,-154 261,-190 -25,32 -40,70 -43,111 -61,37 -112,90 -149,159z"/>
  <path class="fil28" d="M6430 6021c-54,-14 -111,-19 -167,-16 -13,-4 -27,-5 -41,-2 -10,2 -18,5 -26,10 -2,0 -4,1 -7,1 -54,11 -106,30 -152,59 3,-41 18,-80 43,-111 28,-10 56,-18 85,-24 70,-14 141,-16 209,-3 26,23 46,52 57,85z"/>
  <path class="fil29" d="M6263 6006c-23,1 -45,4 -67,8 8,-5 17,-8 26,-10 14,-3 28,-2 41,2z"/>
  <path class="fil30" d="M6647 6140c-13,-13 -28,-26 -43,-37 5,-7 11,-15 19,-23l0 0c12,15 24,32 34,49l0 0c-1,1 -1,1 -2,2l0 0c-3,3 -5,5 -8,8z"/>
  <path class="fil31" d="M5836 6114l-18 1 -2 -10c0,0 50,-225 286,-298 236,-73 455,125 492,239 0,0 -171,-155 -393,-120 -221,35 -365,188 -365,188z"/>
  <path class="fil31" d="M8212 5924l15 8 0 -10c0,0 -100,-218 -346,-233 -246,-14 -412,230 -421,349 0,0 129,-191 353,-210 223,-19 400,95 400,95z"/>
  <path class="fil24" d="M6658 6130c-181,-312 -643,-331 -876,20l48 22c295,-402 740,-212 817,-31l10 -10z"/>
  <path class="fil20" d="M6658 6130c-54,56 -117,102 -186,138 -69,35 -146,58 -223,66 -78,7 -158,0 -231,-27 -73,-27 -141,-73 -186,-135 52,57 119,98 191,121 72,23 149,30 225,22 76,-7 150,-29 219,-60 69,-32 134,-75 193,-124z"/>
  <path class="fil20" d="M7567 5732c-82,75 -155,265 -139,371l30 8c5,-120 20,-261 109,-379z"/>
  <path class="fil32" d="M7458 6033l2 0c1,-2 2,-4 3,-6 1,-7 2,-15 3,-22 -3,9 -5,18 -8,28z"/>
  <path class="fil22" d="M8244 5970c-12,34 -18,58 -41,86 -138,164 -458,218 -712,85 -17,-9 -34,-19 -51,-30 -4,-3 -8,-5 -12,-8 7,-19 15,-38 24,-55 142,-270 551,-296 792,-78z"/>
  <path class="fil23" d="M8033 5982c-1,112 -92,202 -204,201 -112,-1 -202,-92 -201,-204 0,-46 16,-88 42,-122 90,-36 192,-46 293,-30 43,37 71,93 70,155z"/>
  <path class="fil24" d="M7916 5982c0,47 -39,85 -86,85 -47,0 -85,-39 -85,-86 0,-47 39,-85 86,-85 47,0 85,39 85,86z"/>
  <path class="fil25" d="M7490 6141c-21,-11 -42,-24 -62,-38 7,-19 15,-38 24,-55 38,26 55,56 39,93z"/>
  <path class="fil26" d="M7881 6031c10,-59 55,-55 46,-12 -9,43 -54,59 -46,12z"/>
  <path class="fil27" d="M7439 6111c0,0 0,0 0,0 -3,-2 -6,-4 -9,-6 3,2 6,4 9,6l0 0z"/>
  <path class="fil27" d="M7474 6066c42,-47 96,-86 155,-114 5,-35 19,-68 40,-95 -92,37 -171,100 -218,190 9,6 16,12 23,18zm728 -11l0 0c11,-13 20,-27 27,-42 5,-11 9,-24 12,-37 1,-6 -1,-16 0,-23 -83,-75 -172,-110 -279,-127 30,26 53,61 64,101 67,25 128,66 176,127z"/>
  <path class="fil28" d="M7629 5953c50,-24 105,-40 161,-48 12,-6 26,-10 40,-10 10,0 19,2 28,5 2,0 5,0 7,0 55,0 109,9 161,28 -11,-40 -33,-75 -64,-101 -29,-5 -59,-7 -88,-7 -71,0 -142,12 -205,37 -21,27 -35,59 -40,95z"/>
  <path class="fil29" d="M7791 5905c22,-3 45,-5 68,-5 -9,-3 -18,-5 -28,-5 -14,0 -28,3 -40,10z"/>
  <path class="fil30" d="M7439 6111c10,-16 22,-30 35,-45 -6,-6 -14,-13 -23,-18l0 0c-9,17 -17,36 -24,55l0 0c1,1 2,1 3,2l0 0c3,2 6,4 9,6z"/>
  <path class="fil24" d="M7427 6103c118,-342 515,-463 810,-164l10 45c-367,-337 -767,-65 -808,127l-12 -8z"/>
  <path class="fil20" d="M7427 6103c63,44 134,78 209,99 75,21 154,28 232,22 78,-8 155,-31 222,-71 52,-31 112,-80 138,-139 5,-11 9,-21 11,-32 -40,66 -91,122 -157,158 -66,37 -141,58 -216,65 -76,8 -152,1 -226,-17 -74,-18 -146,-47 -213,-85z"/>
  <path class="fil33" d="M7116 5905c0,0 66,493 155,446 89,-46 304,-89 334,86 30,175 -1,260 -176,329 -174,69 -440,101 -552,-101 -112,-202 182,-46 232,-56 50,-10 99,-146 26,-202 -73,-56 -136,-456 -20,-503z"/>
  <path class="fil34" d="M7471 6385c0,0 83,-13 74,58 -8,71 -117,-23 -74,-58z"/>
  <path class="fil9" d="M6862 6634c0,0 -49,-120 135,-51 184,68 338,27 391,-8 53,-35 273,-41 191,93 -82,134 -588,286 -717,-34z"/>
  <rect class="fil35" x="1" y="14959" width="29697" height="3697"/>
  <path class="fil36" d="M5547 8467c0,0 -450,-3 -833,172 -384,175 -1296,509 -1581,936 -271,406 -1302,2210 -1401,2384 -5,9 -15,26 -15,26 0,0 752,-42 1195,196 443,238 774,357 774,357 0,0 433,807 407,1237 -26,430 -46,1786 -46,1786l575 -33 5057 -7 -33 -2097c0,0 232,126 476,73 245,-53 245,-245 245,-245 0,0 483,-3605 99,-3817 -384,-212 -1273,-572 -1422,-652 -149,-79 -800,-384 -1005,-288 -205,96 -1095,1836 -2491,-30z"/>
  <path class="fil37" d="M5928 8416l-381 52c189,1261 2396,1375 2603,11l-365 -54c-146,395 -354,563 -658,634 -493,114 -1076,-111 -1199,-642z"/>
  <path class="fil38" d="M10703 6808c-258,241 -301,873 -301,873l427 139c0,0 79,-759 251,-936 98,-100 -185,-255 -377,-76z"/>
  <path class="fil39" d="M10994 7796c0,0 -96,-407 -804,-394 -708,13 -450,298 -450,298 0,0 -251,112 -185,311 66,198 -66,351 33,456 99,106 -112,240 -24,413 87,173 323,173 323,173 0,0 5,340 204,479 198,139 192,-40 185,159 -7,198 -119,1336 -119,1680 0,344 178,1984 178,1984l-251 113c0,0 410,334 741,437 331,103 483,99 562,144 79,45 471,3 465,-238 -9,-325 188,-304 177,-657 -14,-420 -103,-1492 -620,-2515 0,0 -357,-794 -370,-1462 -13,-668 -45,-1381 -45,-1381z"/>
  <path class="fil40" d="M9724 8927c162,55 482,89 678,68 278,-30 403,-384 413,-526 10,-142 133,-861 -46,-940 -179,-79 -389,-213 -947,-75 0,0 -131,188 91,231 222,43 642,179 311,152 -331,-26 -506,-66 -539,10 -33,76 -50,245 136,284 185,40 509,79 417,132 -93,53 -453,-69 -542,13 -89,83 -30,228 142,235 172,7 387,69 308,106 -79,36 -314,-50 -423,-7 -93,37 -155,263 3,316z"/>
  <path class="fil41" d="M10480 9876c0,0 119,-212 198,99 79,311 605,1922 625,2239 20,318 119,992 -192,1058 -311,66 -562,-390 -637,-951 -75,-561 -65,-1731 5,-2446z"/>
  <path class="fil42" d="M3927 18656l5894 0 -96 -3204 -255 -26c0,0 -40,-1865 -159,-2381 -119,-516 -93,-1058 -106,-1336 -13,-278 -7,-633 13,-820 20,-188 73,-761 73,-1039 0,-278 -81,-904 -298,-1090 0,0 -183,-93 -359,-162 -141,-55 -274,-89 -325,-97 0,0 228,393 268,605 40,212 73,949 56,1184 -17,235 -96,1432 -96,1432l-2712 20 7 -516 -93 -245 43 -235 -48 -270c0,0 3,-671 -79,-982 -83,-311 -254,-930 -432,-999 -177,30 -354,72 -519,145 -92,40 -179,82 -179,82 0,0 327,298 418,653 91,356 114,934 114,934l43 513 46 208 -26 73c0,0 7,129 13,258 7,129 -78,1060 -88,1305 -10,245 -407,2656 -425,2863l-636 -55 -57 3182z"/>
  <path class="fil43" d="M5148 10283l559 -21c53,-2 98,38 100,88l17 417c2,51 -40,93 -92,95l-559 21c-53,2 -98,-38 -100,-88l-17 -417c-2,-51 40,-93 92,-95z"/>
  <path class="fil44" d="M5143 10885l623 -23c35,-1 65,25 67,59l11 278c1,34 -26,62 -62,64l-623 23c-35,1 -65,-25 -67,-59l-11 -278c-1,-34 26,-62 62,-64z"/>
  <path class="fil43" d="M8663 10243l533 26c50,2 90,46 87,96l-20 417c-2,51 -46,90 -96,87l-533 -26c-50,-2 -90,-46 -87,-96l20 -417c2,-51 46,-90 96,-87z"/>
  <path class="fil44" d="M8613 10790l594 29c34,2 60,31 58,64l-14 278c-2,34 -31,60 -64,58l-594 -29c-34,-2 -60,-31 -58,-64l14 -278c2,-34 31,-60 64,-58z"/>
  <rect class="fil45" x="5780" y="12495" width="2738" height="2236" rx="423" ry="423"/>
  <rect class="fil46" x="5780" y="12495" width="2738" height="860" rx="423" ry="163"/>
  <path class="fil47" d="M3928 11811c0,0 291,-1052 423,-1025 132,26 73,413 60,695 -13,281 -40,675 -40,675 0,0 -450,-218 -443,-344z"/>
  <path class="fil47" d="M1781 12187c0,0 -144,-214 -42,-215 103,-1 742,-7 1147,196 405,203 -75,151 -75,151 0,0 -28,-90 -399,-170 -372,-80 -600,-78 -600,-78l-31 116z"/>
  <path class="fil48" d="M4701 14978c0,0 1500,384 1622,345 55,-18 145,-93 269,-61 193,51 448,91 559,115 183,40 417,67 417,67l67 -173 -213 -123 -993 -273 -1704 -183 -24 285z"/>
  <polygon class="fil49" points="7519,15371 6023,14896 4495,14195 2791,12297 1344,10711 1561,10716 4470,12153 "/>
  <polygon class="fil50" points="1483,10582 1344,10711 4433,12206 7519,15371 7552,15222 4529,12096 "/>
  <path class="fil51" d="M5332 13692l331 48 146 -123 63 64 -193 203 -402 -71c0,0 -7,-142 54,-120z"/>
  <path class="fil51" d="M2783 12288c0,0 257,162 677,615 420,453 1012,824 1177,953 165,129 -44,71 -46,64 -2,-7 -53,-26 -100,-63 -48,-37 -536,-381 -536,-381 0,0 -416,-369 -522,-498 -106,-129 -494,-514 -650,-690z"/>
  <path class="fil52" d="M1845 12072c0,0 -423,966 -146,1376 278,410 1078,893 2269,1191 655,164 1316,317 1809,404 306,54 553,78 655,88 26,3 64,-6 92,-39 129,-156 577,-620 527,-734 -60,-136 -56,-86 -56,-86 0,0 43,-222 -10,-314 -53,-93 -159,-129 -159,-129 0,0 83,-159 -235,-281 -317,-122 -790,-135 -790,-135 0,0 184,102 102,208 -83,106 -245,208 -245,208 0,0 -294,-33 -344,-53 -50,-20 40,-119 89,-149 50,-30 175,-89 116,-261 -60,-172 -241,-172 -400,-119 -159,53 -470,96 -476,311 -7,215 -23,380 -66,354 -43,-26 -569,-344 -919,-701 -351,-357 -867,-913 -867,-913 0,0 -337,-212 -946,-225z"/>
  <polygon class="fil53" points="4433,12206 4529,12096 7552,15222 7519,15371 "/>
  <path class="fil54" d="M5845 13683c0,0 -12,914 199,1046 212,132 581,253 581,253 0,0 337,-392 393,-499 0,0 51,-75 30,-132 -21,-57 -52,-88 -52,-88 0,0 54,-209 -28,-331 0,0 -100,-100 -142,-104 0,0 36,-111 -64,-185 -100,-74 -328,-167 -582,-196 -255,-28 -378,-36 -378,-36 9,10 19,20 28,29 19,20 35,36 49,51 61,60 56,91 -33,192z"/>
  <path class="fil9" d="M3158 12689c-159,-169 -235,-232 -367,-392 -132,-160 -970,-257 -978,-226l-94 347c0,0 408,30 752,76 344,46 687,194 687,194z"/>
  <path class="fil9" d="M6424 14909c0,0 -2845,-269 -4088,-969 -203,-114 -484,-319 -432,-261 334,374 1385,793 1841,906 1638,407 2650,564 2712,545 62,-19 169,-147 169,-147l-201 -73z"/>
  <path class="fil55" d="M5435 6545c0,0 122,97 58,409 -18,862 1103,1201 1788,1132 366,-37 873,-263 1174,-468 0,0 -290,410 -786,532 -496,121 -1222,101 -1519,-62 -297,-164 -478,-238 -623,-583 -145,-345 -99,-607 -94,-671 5,-64 11,-198 2,-288z"/>
  <g id="_2362174282336">
   <path class="fil56" d="M7604 9734c0,0 -419,-14 -469,538l508 443 -40 -981z"/>
   <path class="fil56" d="M6883 10065l252 207c0,0 13,376 384,453l-603 32c0,0 -303,-329 -33,-692z"/>
   <path class="fil57" d="M6642 10768l275 -11c0,0 85,173 347,161 262,-11 374,-178 374,-178 0,0 -32,439 -397,499 -396,79 -607,-320 -599,-471z"/>
   <path class="fil58" d="M7110 9827c31,-1 61,0 91,2 -29,30 -47,54 -54,62 -12,0 -23,0 -35,0 -413,15 -735,366 -720,784 15,418 362,745 775,730 413,-15 735,-366 720,-784 -7,-182 -77,-347 -187,-474l-3 -95c149,143 246,343 254,567 17,454 -333,834 -781,851 -448,16 -825,-338 -841,-792 -17,-454 333,-834 781,-851z"/>
  </g>
  <path class="fil47" d="M10336 13355l-9 -88c0,0 -172,133 -354,129 -182,-3 -319,-26 -319,-26l-8 55c0,0 236,128 478,72 242,-55 213,-143 213,-143z"/>
  <path class="fil59" d="M6574 7125l-4 19c244,81 512,104 765,51 179,-37 349,-91 349,-91l-3 -18c-421,110 -680,158 -1106,39z"/>
  <rect class="fil60" x="14641" y="15199" width="489" height="485" rx="63" ry="70"/>
  <rect class="fil60" x="13188" y="15199" width="489" height="485" rx="63" ry="70"/>
  <path class="fil61" d="M16058 14959l0 117c0,39 -179,70 -397,70l-1972 0c-218,0 -397,-32 -397,-70l0 -117 2766 0z"/>
  <polygon class="fil62" points="16150,11896 13061,11896 12895,11896 12895,12948 12895,15263 15419,15263 16153,14899 "/>
  <rect class="fil61" x="15650" y="14662" width="408" height="485" rx="52" ry="70"/>
  <polygon class="fil63" points="15419,15263 16153,14899 16153,11896 15396,11896 "/>
  <rect class="fil64" x="13260" y="12387" width="1683" height="483" rx="89" ry="93"/>
  <rect class="fil65" x="13386" y="12448" width="1431" height="357" rx="76" ry="69"/>
  <g id="_2362174329312">
   <ellipse class="fil66" cx="14102" cy="12618" rx="83" ry="80"/>
   <path class="fil67" d="M14117 12539c0,0 61,111 -65,143 4,6 69,42 115,-14 46,-55 1,-121 -50,-129z"/>
  </g>
  <rect class="fil64" x="13260" y="13048" width="1683" height="483" rx="89" ry="93"/>
  <rect class="fil65" x="13386" y="13110" width="1431" height="357" rx="76" ry="69"/>
  <g id="_2362186308976">
   <ellipse class="fil66" cx="14102" cy="13280" rx="83" ry="80"/>
   <path class="fil67" d="M14117 13201c0,0 61,111 -65,143 4,6 69,42 115,-14 46,-55 1,-121 -50,-129z"/>
  </g>
  <rect class="fil64" x="13260" y="13723" width="1683" height="483" rx="89" ry="93"/>
  <rect class="fil65" x="13386" y="13784" width="1431" height="357" rx="76" ry="69"/>
  <g id="_2362186303312">
   <ellipse class="fil66" cx="14102" cy="13954" rx="83" ry="80"/>
   <path class="fil67" d="M14117 13875c0,0 61,111 -65,143 4,6 69,42 115,-14 46,-55 1,-121 -50,-129z"/>
  </g>
  <rect class="fil64" x="13260" y="14384" width="1683" height="483" rx="89" ry="93"/>
  <rect class="fil65" x="13386" y="14446" width="1431" height="357" rx="76" ry="69"/>
  <g id="_2362186368624">
   <ellipse class="fil66" cx="14102" cy="14616" rx="83" ry="80"/>
   <path class="fil67" d="M14117 14537c0,0 61,111 -65,143 4,6 69,42 115,-14 46,-55 1,-121 -50,-129z"/>
  </g>
  <path class="fil61" d="M13677 15496l0 117c0,39 -32,70 -70,70l-349 0c-39,0 -70,-32 -70,-70l0 -117 489 0z"/>
  <path class="fil61" d="M15131 15496l0 117c0,39 -32,70 -70,70l-349 0c-39,0 -70,-32 -70,-70l0 -117 489 0z"/>
  <path class="fil68" d="M26541 11808l1350 0c128,0 233,123 233,233l0 495 -92 0 0 -452c0,-101 -96,-183 -213,-183l-1206 0c-117,0 -213,82 -213,183l0 452 -92 0 0 -495c0,-110 105,-233 233,-233z"/>
  <path class="fil69" d="M28342 12308l-900 0c0,0 -324,238 -331,430 -7,192 687,463 687,463l7 1766 -1111 0 0 337 1654 0 -7 -2996z"/>
  <path class="fil69" d="M27476 12308l-1826 13c-143,1 -243,574 -243,574 8,0 14,0 23,1 588,16 1205,-1 1796,-1l250 -587z"/>
  <ellipse class="fil70" cx="26108" cy="12575" rx="43" ry="39"/>
  <ellipse class="fil70" cx="26160" cy="12444" rx="43" ry="39"/>
  <polygon class="fil71" points="26715,12380 27064,12379 26967,12600 26593,12600 "/>
  <ellipse class="fil72" cx="26445" cy="12483" rx="70" ry="63"/>
  <path class="fil73" d="M25407 12895l662 302 1731 4c0,0 -369,-150 -575,-306l-1143 0 -624 0 -51 0z"/>
  <polygon class="fil73" points="26069,13197 26069,14532 26069,14988 27807,14988 27806,13201 "/>
  <rect class="fil74" x="24783" y="14988" width="1913" height="316"/>
  <rect class="fil75" x="24849" y="15304" width="3459" height="127"/>
  <rect class="fil75" x="25041" y="15431" width="339" height="301"/>
  <rect class="fil75" x="26337" y="15431" width="339" height="301"/>
  <rect class="fil76" x="27749" y="15431" width="339" height="301"/>
  <path class="fil77" d="M25378 13723l743 0 0 1265 -943 0 0 -1065c0,-110 90,-200 200,-200z"/>
  <path class="fil78" d="M25963 13723l164 0 0 1265 -364 0 0 -1065c0,-110 90,-200 200,-200z"/>
  <path class="fil77" d="M26386 13723l743 0 0 1265 -943 0 0 -1065c0,-110 90,-200 200,-200z"/>
  <path class="fil78" d="M27476 13723l164 0 0 1265 -364 0 0 -1065c0,-110 90,-200 200,-200z"/>
  <path class="fil78" d="M26975 13723l164 0 0 1265 -364 0 0 -1065c0,-110 90,-200 200,-200z"/>
  <rect class="fil78" x="27057" y="13723" width="542" height="1265"/>
  <path class="fil79" d="M28427 13159c0,0 -7,357 17,476 23,119 0,394 3,509 3,116 3,440 -33,509 -36,69 -66,109 -66,109l0 181c0,0 26,-92 82,-174 56,-83 81,-207 74,-260 -7,-53 10,-400 7,-438 -3,-38 22,-329 12,-385 -10,-56 -25,-217 -23,-263 2,-46 0,-265 0,-265l-72 0z"/>
  <rect class="fil76" x="26695" y="15304" width="1613" height="127"/>
  <polygon class="fil80" points="28394,12874 28032,12874 28032,12991 28238,12991 28238,13168 28394,13168 "/>
  <rect class="fil81" x="28394" y="12874" width="140" height="294"/>
  <polygon class="fil82" points="16431,4262 17293,4262 17293,14967 16431,14967 "/>
  <polygon class="fil83" points="16431,14927 15294,15672 18146,15672 18164,15672 17303,14929 "/>
  <polygon class="fil84" points="17283,4262 17929,4262 17929,6672 17929,14917 18757,15668 18142,15672 17283,14927 "/>
  <polygon class="fil85" points="17397,4489 17930,4489 17930,14926 17944,15387 17397,14921 "/>
  <rect class="fil86" x="17929" y="9225" width="2853" height="390"/>
  <rect class="fil87" x="17929" y="9473" width="2853" height="143"/>
  <polygon class="fil88" points="22062,8971 20510,9227 20754,9227 20754,9616 22066,9803 "/>
  <g id="_2361983531200">
   <path class="fil89" d="M16157 9339l-356 0c-340,0 -616,-319 -616,-711 0,-393 276,-711 616,-711l356 0c-340,0 -616,319 -616,711 0,393 276,711 616,711z"/>
   <path class="fil89" d="M15541 8628c0,-6 0,-12 0,-17l0 -2c0,-5 0,-9 0,-14 1,-27 3,-53 7,-79l-356 0c-4,26 -6,52 -7,79 0,5 0,9 0,14l0 2c0,6 0,12 0,17 0,393 276,711 616,711l356 0c-340,0 -616,-319 -616,-711z"/>
   <path class="fil89" d="M15290 8230l0 0c-3,5 -5,9 -8,14l0 0c-5,10 -10,19 -15,29l0 0c-5,10 -10,20 -14,30l0 1c-2,5 -4,10 -6,15l0 1c-2,5 -4,10 -6,15l-1 1c-2,5 -4,9 -5,14l-1 2c-2,5 -3,9 -5,14l-1 3c-2,4 -3,9 -4,13l-1 3c-1,4 -3,9 -4,13 0,2 -1,3 -1,5 -1,3 -2,6 -3,9 -9,34 -16,68 -21,104l356 0c5,-35 12,-69 21,-103 1,-4 2,-8 3,-11l1 -3c1,-5 3,-10 5,-15l0 -1c1,-2 1,-4 2,-6 1,-3 2,-6 3,-9l0 -1c2,-5 4,-11 6,-16l0 0c2,-5 4,-11 6,-16l0 0c24,-61 55,-118 93,-169l-356 0c-15,20 -29,42 -42,64z"/>
   <path class="fil89" d="M15450 8042c-20,16 -40,34 -58,53l-2 2c-2,2 -4,4 -6,7 -2,2 -5,5 -7,7 -1,1 -2,2 -3,3 -3,3 -6,7 -9,10l-1 1c-11,13 -22,27 -33,41l356 0c11,-14 22,-28 33,-42l0 0c3,-4 6,-7 10,-11l2 -2c3,-3 5,-6 8,-8 2,-2 3,-3 5,-5 2,-2 3,-3 5,-5 18,-18 37,-35 57,-51l-356 0z"/>
   <path class="fil89" d="M16157 7916l-356 0c-5,0 -10,0 -15,0l-1 0c-5,0 -10,0 -15,1l-1 0c-5,0 -10,1 -14,1l-1 0c-5,0 -9,1 -14,1l-2 0c-5,1 -9,1 -14,2l-2 0c-4,1 -8,1 -12,2l-3 1c-4,1 -8,2 -12,2 -1,0 -2,1 -4,1 -4,1 -7,2 -10,2 -2,0 -4,1 -5,1 -3,1 -6,2 -10,2 -2,0 -3,1 -5,1 -3,1 -6,2 -8,2 -3,1 -5,2 -8,2 -2,1 -5,1 -7,2 -3,1 -6,2 -9,3 -1,0 -2,1 -3,1 -62,22 -120,54 -173,96l356 0c52,-42 110,-74 173,-96l4 -1c3,-1 6,-2 9,-3 2,-1 5,-2 7,-2 3,-1 5,-2 8,-2 3,-1 6,-2 9,-2 2,0 3,-1 5,-1 3,-1 6,-2 10,-2 2,0 4,-1 5,-1 3,-1 7,-2 10,-2 1,0 2,-1 4,-1 4,-1 8,-2 12,-2 1,0 2,0 3,-1 4,-1 8,-1 12,-2l2 0c5,-1 9,-1 14,-2l2 0c5,-1 9,-1 14,-1l1 0c5,0 10,-1 14,-1l1 0c5,0 10,-1 15,-1l1 0c5,0 10,0 15,0z"/>
   <path class="fil90" d="M16157 7916c340,0 616,319 616,711 0,393 -276,711 -616,711 -340,0 -616,-319 -616,-711 0,-393 276,-711 616,-711z"/>
   <path class="fil89" d="M21216 9339l-356 0c-340,0 -616,-319 -616,-711 0,-393 276,-711 616,-711l356 0c-340,0 -616,319 -616,711 0,393 276,711 616,711z"/>
   <path class="fil89" d="M20600 8628c0,-6 0,-12 0,-17l0 -2c0,-4 0,-9 0,-13 1,-27 3,-54 7,-80l-356 0c-4,26 -6,53 -7,80 0,4 0,9 0,13l0 2c0,6 0,12 0,17 0,393 276,711 616,711l356 0c-340,0 -616,-319 -616,-711z"/>
   <path class="fil91" d="M20366 8202l0 0c-3,4 -6,9 -8,13l-1 1c-3,4 -5,9 -8,13l-1 1c-2,4 -5,8 -7,13l-1 2c-2,4 -5,8 -7,13l-1 2c-2,4 -4,8 -6,13l-1 2c-2,4 -4,8 -6,12l-1 3c-2,4 -4,8 -6,12l-1 3c-2,4 -3,8 -5,12l-2 4c-2,4 -3,8 -5,11m-6 16c-1,2 -1,4 -2,5 -1,3 -2,7 -3,10 -1,2 -2,5 -2,7 -1,3 -2,6 -3,10 -1,2 -1,4 -2,6 -1,4 -2,7 -3,11 -1,2 -1,4 -2,6 -1,3 -2,6 -2,9 -9,34 -16,68 -21,104l356 0c5,-35 12,-69 21,-103 1,-4 2,-8 3,-12l1 -2c2,-5 3,-10 5,-15l0 0c1,-2 1,-4 2,-7 25,-77 62,-148 108,-210l-356 0c-9,12 -17,23 -25,36m-73 146c1,-4 3,-7 4,-11"/>
   <path class="fil89" d="M20510 8042c-24,19 -46,40 -67,62 -2,2 -4,4 -6,6 -1,1 -2,3 -4,4 -3,3 -6,6 -8,10l-1 1c-11,13 -22,27 -33,41l356 0c7,-10 15,-20 23,-29l0 0c3,-4 6,-8 10,-11l1 -2c3,-3 6,-6 9,-10 1,-1 2,-2 3,-3 2,-3 5,-5 7,-8 2,-2 3,-4 5,-5 1,-1 3,-3 4,-4 18,-18 37,-36 57,-51l-356 0z"/>
   <path class="fil89" d="M21216 7916l-356 0c-5,0 -10,0 -15,0l-1 0c-5,0 -10,0 -15,1l-1 0c-5,0 -10,1 -14,1l-1 0c-5,0 -9,1 -14,1l-2 0c-4,1 -9,1 -13,2l-2 0c-4,1 -8,1 -12,2 -1,0 -2,0 -3,1 -4,1 -8,2 -12,2 -1,0 -3,1 -4,1 -3,1 -7,1 -10,2 -2,0 -4,1 -6,1 -3,1 -6,2 -9,2 -2,1 -4,1 -6,2 -3,1 -5,1 -8,2 -3,1 -5,2 -8,2 -2,1 -4,1 -7,2 -3,1 -7,2 -10,3l-2 1c-62,22 -121,54 -173,96l356 0c48,-38 101,-69 158,-91l3 -1c4,-1 7,-3 11,-4 2,-1 4,-1 5,-2 3,-1 5,-2 8,-3 3,-1 5,-2 8,-3 2,-1 4,-1 6,-2 3,-1 6,-2 10,-3 1,0 3,-1 4,-1 3,-1 7,-2 11,-3 1,0 3,-1 4,-1 4,-1 7,-2 11,-2l3 -1c4,-1 9,-2 13,-2l3 0c4,-1 9,-1 13,-2l2 0c5,-1 9,-1 14,-2l2 0c5,-1 10,-1 14,-1l1 0c5,0 10,-1 15,-1l1 0c5,0 10,-1 15,-1l1 0c5,0 10,0 15,0z"/>
   <path class="fil90" d="M21216 7916c340,0 616,319 616,711 0,393 -276,711 -616,711 -340,0 -616,-319 -616,-711 0,-393 276,-711 616,-711z"/>
   <path class="fil90" d="M25553 8231c0,203 -123,385 -311,462l-340 138c-82,30 -168,45 -255,45l-10113 0c-52,0 -93,-42 -93,-93l0 -698c0,-337 274,-611 611,-611l10502 0 0 758z"/>
   <path class="fil90" d="M19044 9339l-356 0c-340,0 -616,-319 -616,-711 0,-393 276,-711 616,-711l356 0c-340,0 -616,319 -616,711 0,393 276,711 616,711z"/>
   <path class="fil90" d="M18428 8628c0,-6 0,-12 0,-18l0 -1c0,-5 0,-10 1,-15 0,-2 0,-4 0,-6 0,-3 0,-6 1,-9 1,-21 3,-43 6,-64l-356 0c-4,26 -6,53 -7,80 0,4 0,9 0,13l0 2c0,6 0,12 0,17 0,6 0,12 0,18 0,6 0,12 1,18 0,6 1,12 1,18 0,6 1,12 1,18 1,6 1,12 2,18 1,6 1,12 2,18 1,6 2,12 3,18 1,6 2,12 3,17 1,6 2,12 3,17 1,6 2,11 4,17 1,6 3,11 4,17 1,6 3,11 4,17 2,6 3,11 5,17l0 0c2,6 3,11 5,16 2,5 4,11 5,16 2,5 4,11 6,16 2,5 4,11 6,16 2,5 4,10 6,16l0 0c2,5 4,10 7,15l0 0c2,5 5,10 7,15l0 0c2,5 5,10 7,15l0 0c2,5 5,10 8,15l0 0c105,200 294,336 511,342 5,0 11,0 16,0l0 0 356 0c-340,0 -616,-319 -616,-711z"/>
   <path class="fil90" d="M18100 8415l-1 4c-1,3 -2,7 -3,10 -7,28 -13,57 -17,87l356 0c4,-29 10,-58 17,-86 1,-4 2,-8 3,-11l1 -3c4,-13 7,-26 12,-39 25,-77 62,-148 108,-210l-356 0c-53,72 -94,156 -119,248z"/>
   <path class="fil90" d="M18338 8042c-16,13 -32,27 -47,42l-1 1c-3,2 -5,5 -8,8 -2,2 -4,4 -6,6 -1,1 -3,3 -4,4 -3,3 -5,6 -8,9l-2 2c-3,3 -6,7 -9,11l-1 1c-11,13 -22,27 -33,41l356 0c14,-18 28,-36 43,-53l2 -2c3,-3 5,-6 8,-9 1,-1 3,-3 4,-4 2,-2 4,-4 5,-5 18,-18 37,-35 57,-51l-356 0z"/>
   <path class="fil90" d="M19044 7916l-356 0c-5,0 -10,0 -15,0l-1 0c-5,0 -10,0 -15,1l-1 0c-5,0 -10,1 -15,1l-1 0c-5,0 -10,1 -15,2l-1 0c-5,1 -10,1 -14,2l-1 0c-4,1 -9,1 -13,2l-2 0c-4,1 -9,2 -13,3 -1,0 -2,0 -3,1 -4,1 -8,2 -12,3 -1,0 -3,1 -4,1 -4,1 -7,2 -11,3 -1,0 -3,1 -4,1 -3,1 -7,2 -10,3 -2,1 -4,1 -6,2 -3,1 -6,2 -8,3 -2,1 -5,2 -7,2 -2,1 -4,1 -6,2 -3,1 -6,2 -9,3 -2,1 -3,1 -5,2 -3,1 -7,3 -10,4l-1 0c-52,21 -101,50 -146,86l356 0c52,-42 111,-75 173,-96l2 -1c3,-1 6,-2 10,-3 2,-1 4,-1 7,-2 3,-1 5,-2 8,-2 3,-1 5,-1 8,-2 2,-1 4,-1 6,-2 3,-1 6,-2 9,-2 2,0 4,-1 6,-1 3,-1 7,-2 10,-2 1,0 3,-1 4,-1 4,-1 8,-2 12,-2 1,0 2,0 3,-1 4,-1 8,-1 12,-2l2 0c4,-1 9,-1 13,-2l2 0c5,-1 9,-1 14,-1l1 0c5,0 10,-1 14,-1l1 0c5,0 10,-1 15,-1l1 0c5,0 10,0 15,0z"/>
   <path class="fil92" d="M19030 7916c348,0 630,319 630,711 0,393 -282,711 -630,711 -348,0 -630,-319 -630,-711 0,-393 282,-711 630,-711z"/>
   <path class="fil93" d="M19044 7916c340,0 616,319 616,711 0,393 -276,711 -616,711 -340,0 -616,-319 -616,-711 0,-393 276,-711 616,-711z"/>
   <path class="fil89" d="M19044 8099c253,0 458,237 458,529 0,292 -205,529 -458,529 -253,0 -458,-237 -458,-529 0,-292 205,-529 458,-529z"/>
   <path class="fil90" d="M19044 9080c-29,0 -57,-4 -85,-11l35 -151c27,-5 52,-37 73,-80l54 233c-25,6 -51,9 -77,9zm288 -145l-217 -251c0,-1 0,-2 1,-3l299 93c-18,61 -46,115 -83,161zm-581 -7c-36,-47 -64,-102 -80,-163l192 -60c5,23 11,47 19,71l-131 152z"/>
   <path class="fil94" d="M18956 9085l84 -364 85 366c-26,6 -53,9 -81,9 -30,0 -60,-4 -88,-11zm-296 -606c18,-63 48,-120 87,-168l230 267 -317 -98zm81 460c-38,-49 -67,-106 -84,-170l316 -98 -231 268zm391 -767l-84 364 -85 -366c26,-6 53,-9 81,-9 30,0 60,4 88,11zm214 146c38,49 67,107 84,170l-316 98 231 -269zm-236 361l317 98c-18,63 -48,121 -87,168l-230 -267zm-67 -555c-241,0 -437,226 -437,505 0,279 196,505 437,505 241,0 437,-226 437,-505 0,-279 -196,-505 -437,-505z"/>
   <path class="fil95" d="M19417 8492c-17,-61 -44,-117 -80,-164l9 -11c23,29 42,62 58,97 10,23 19,48 26,74l-13 4zm-744 -9l-13 -4c18,-63 48,-120 87,-168l9 11c-37,46 -65,101 -83,162zm456 -297c-27,-7 -56,-11 -85,-11 -26,0 -52,3 -77,9l-4 -15c26,-6 52,-9 79,-9 0,0 1,0 1,0 0,0 0,0 0,0 0,0 1,0 1,0 30,0 59,4 87,11l-3 15z"/>
   <path class="fil90" d="M19115 8586c0,0 0,0 0,0l222 -257c36,47 64,103 80,164l-302 94zm-242 -40l-201 -62c18,-61 46,-115 83,-162l155 179c-15,12 -27,27 -37,45zm183 -49c-7,-5 -14,-9 -21,-12l-69 -300c25,-6 51,-9 77,-9 29,0 58,4 85,11l-72 310z"/>
   <path class="fil94" d="M19445 8693c-94,-42 -205,-70 -325,-78 -1,-10 -2,-20 -4,-29l302 -94 13 -4c12,44 18,91 18,140 0,22 -2,44 -4,65zm-802 0c-3,-21 -4,-43 -4,-65 0,-258 181,-467 404,-468 -27,0 -54,3 -79,9l4 15 69 300c-15,-7 -32,-11 -49,-11 -28,0 -55,10 -76,28l-155 -179 -9 -11c-38,48 -68,105 -87,168l13 4 201 62c-13,24 -20,52 -20,82 0,0 0,1 0,1 -76,14 -147,36 -210,64zm472 -107c-9,-38 -30,-69 -58,-89l72 -310 3 -15c-28,-7 -57,-11 -87,-11 157,0 293,104 360,255 -16,-35 -35,-68 -58,-97l-9 11 -222 257zm-72 -426c0,0 0,0 0,0l0 0c0,0 0,0 0,0z"/>
   <path class="fil26" d="M19044 9097c-224,0 -406,-210 -406,-469 0,-259 182,-469 406,-469 224,0 406,210 406,469 0,259 -182,469 -406,469zm0 -974c-241,0 -437,226 -437,505 0,279 195,505 437,505 241,0 437,-226 437,-505 0,-279 -195,-505 -437,-505z"/>
   <path class="fil90" d="M18994 8918l46 -197 27 118c-20,42 -46,75 -73,80zm-112 -143c-8,-24 -14,-48 -19,-71l110 -34 -91 105zm233 -92l-4 -5 5 1c0,1 0,2 -1,3z"/>
   <path class="fil94" d="M18987 8919c-43,0 -81,-69 -105,-143l91 -105 -110 34c-6,-29 -9,-56 -9,-76 61,-11 125,-17 191,-17 26,0 51,1 76,3 0,4 0,9 0,13 0,15 -2,32 -5,52l-5 -1 4 5c-8,49 -25,108 -48,155l-27 -118 -46 197c-2,0 -5,1 -7,1z"/>
   <path class="fil90" d="M19115 8586l0 0c0,0 0,0 0,0l0 0zm-139 -9l-103 -32c10,-18 22,-33 37,-45l66 77zm71 -42l-12 -51c7,3 14,7 21,12l-9 39z"/>
   <path class="fil96" d="M18853 8629c0,0 0,-1 0,-1 0,-30 7,-58 20,-82l103 32 -66 -77c22,-17 48,-28 76,-28 17,0 34,4 49,11l12 51 9 -39c28,20 49,52 58,89l0 0 0 0c2,9 4,19 4,29 -25,-2 -50,-3 -76,-3 -66,0 -130,6 -191,17z"/>
   <path class="fil90" d="M18987 8473c74,0 134,69 134,154 0,85 -60,154 -134,154 -74,0 -134,-69 -134,-154 0,-85 60,-154 134,-154z"/>
   <path class="fil26" d="M19044 8473c74,0 134,69 134,154 0,85 -60,154 -134,154 -74,0 -134,-69 -134,-154 0,-85 60,-154 134,-154z"/>
   <path class="fil90" d="M24103 9339l-356 0c-340,0 -616,-319 -616,-711 0,-393 276,-711 616,-711l356 0c-340,0 -616,319 -616,711 0,393 276,711 616,711z"/>
   <path class="fil90" d="M23487 8628c0,-6 0,-12 0,-17l0 -2c0,-4 0,-9 0,-13 1,-27 3,-54 7,-80l-356 0c-4,26 -6,52 -7,79 0,5 0,9 0,14l0 2c0,6 0,12 0,17 0,393 276,711 616,711l356 0c-340,0 -616,-319 -616,-711z"/>
   <path class="fil90" d="M23262 8188l0 0c-3,4 -6,8 -8,13l-1 2c-3,4 -5,8 -8,12l-1 2c-2,4 -5,8 -7,11l-2 3c-2,4 -4,7 -6,11l-2 4c-2,3 -4,7 -6,10 -1,1 -2,3 -2,4 -2,3 -3,7 -5,10 -1,2 -2,3 -3,5 -2,3 -3,7 -5,10 -1,2 -2,3 -2,5 -2,3 -3,7 -5,10 -1,2 -2,4 -2,5 -1,3 -3,7 -4,10 -1,2 -2,4 -2,6 -1,3 -3,6 -4,10 -1,2 -2,4 -2,6 -1,3 -2,6 -4,10 -1,2 -2,4 -2,7 -1,3 -2,6 -3,9 -1,2 -2,5 -3,7 -1,3 -2,6 -3,9 -1,3 -2,5 -2,8 -1,2 -2,5 -2,7 -12,39 -20,79 -26,121l356 0c5,-36 12,-72 22,-106 0,-2 1,-3 1,-4 1,-3 2,-6 3,-10 1,-3 2,-5 2,-8 3,-9 5,-17 8,-25 1,-3 2,-5 3,-8 1,-2 2,-4 2,-6 1,-4 3,-7 4,-11l1 -4c2,-4 3,-8 5,-12l1 -3c2,-4 4,-9 6,-13l1 -2c2,-5 4,-9 6,-13l1 -2c2,-4 4,-9 6,-13l1 -2c2,-4 4,-9 7,-13l1 -2c2,-4 5,-9 7,-13l1 -2c2,-4 5,-8 7,-12l1 -2c2,-4 5,-8 7,-12l1 -2c2,-4 5,-8 7,-12l1 -2c3,-4 5,-8 8,-12l1 -1c3,-4 6,-8 9,-12l0 0c2,-3 4,-6 6,-9l-356 0c-5,7 -11,15 -16,22z"/>
   <path class="fil90" d="M23397 8042c-24,19 -46,40 -67,62 -2,2 -4,4 -6,6 -1,1 -2,3 -4,4 -3,3 -6,6 -8,9l-1 1c-11,13 -22,27 -33,41l356 0c7,-10 15,-20 23,-29l0 0c3,-4 6,-8 10,-11l1 -2c3,-3 6,-6 9,-10 1,-1 2,-2 3,-3 2,-3 5,-5 7,-8 2,-2 3,-4 5,-5 1,-1 3,-3 4,-4 18,-18 37,-36 57,-51l-356 0z"/>
   <path class="fil90" d="M24103 7916l-356 0c-5,0 -10,0 -15,0l-1 0c-5,0 -10,0 -15,1l-1 0c-5,0 -10,1 -14,1l-1 0c-5,0 -9,1 -14,1l-2 0c-4,1 -9,1 -13,2 -1,0 -2,0 -2,0 -4,1 -8,1 -12,2 -1,0 -2,0 -3,1 -4,1 -8,2 -12,2 -1,0 -3,1 -4,1 -3,1 -7,1 -10,2 -2,0 -4,1 -6,1 -3,1 -6,2 -9,2 -2,1 -4,1 -6,2 -3,1 -5,1 -7,2 -3,1 -6,2 -8,2 -2,1 -4,1 -7,2 -3,1 -7,2 -10,3l-2 1c-62,22 -121,54 -173,96l356 0c48,-38 101,-69 158,-91 1,0 2,-1 3,-1 4,-1 7,-3 11,-4 2,-1 4,-1 5,-2 3,-1 5,-2 8,-3 3,-1 5,-2 8,-3 2,-1 4,-1 6,-2 3,-1 6,-2 9,-3 2,0 3,-1 4,-1 3,-1 7,-2 10,-3 1,0 3,-1 4,-1 4,-1 7,-2 11,-2l3 -1c4,-1 9,-2 13,-2 1,0 2,0 3,0 4,-1 9,-1 13,-2l2 0c5,-1 9,-1 14,-2l2 0c5,-1 10,-1 14,-1l1 0c5,0 10,-1 15,-1l1 0c5,0 10,-1 15,-1l1 0c5,0 10,0 15,0z"/>
   <path class="fil92" d="M24089 7916c348,0 630,319 630,711 0,393 -282,711 -630,711 -348,0 -630,-319 -630,-711 0,-393 282,-711 630,-711z"/>
   <path class="fil93" d="M24103 7916c340,0 616,319 616,711 0,393 -276,711 -616,711 -340,0 -616,-319 -616,-711 0,-393 276,-711 616,-711z"/>
   <path class="fil89" d="M24103 8099c253,0 458,237 458,529 0,292 -205,529 -458,529 -253,0 -458,-237 -458,-529 0,-292 205,-529 458,-529z"/>
   <path class="fil90" d="M24103 9080c-29,0 -57,-4 -85,-11l35 -151c27,-5 52,-37 73,-80l54 233c-25,6 -50,9 -77,9zm288 -145l-216 -251c0,-1 0,-2 1,-3l299 93c-18,61 -46,115 -83,161zm-581 -7c-36,-47 -64,-102 -80,-163l192 -60c5,23 11,47 19,71l-131 152z"/>
   <path class="fil94" d="M24015 9085l84 -364 85 366c-26,6 -53,9 -81,9 -30,0 -60,-4 -88,-11zm-296 -606c18,-63 48,-120 87,-168l230 267 -317 -98zm81 460c-38,-49 -67,-106 -84,-170l316 -98 -231 268zm391 -767l-84 364 -85 -366c26,-6 53,-9 80,-9 30,0 60,4 88,11zm214 146c38,49 67,107 84,170l-316 98 232 -269zm-236 361l317 98c-18,63 -48,121 -87,168l-230 -267zm-67 -555c-241,0 -437,226 -437,505 0,279 196,505 437,505 242,0 437,-226 437,-505 0,-279 -196,-505 -437,-505z"/>
   <path class="fil95" d="M24477 8492c-17,-61 -44,-117 -80,-164l10 -11c22,29 42,62 58,96 11,24 19,48 26,74l-13 4zm-744 -9l-13 -4c18,-63 48,-120 87,-168l9 11c-37,46 -65,101 -83,162zm456 -297c-27,-7 -56,-11 -85,-11 -26,0 -52,3 -77,9l-4 -15c25,-6 52,-9 78,-9 1,0 1,0 2,0l0 0c0,0 1,0 1,0 30,0 59,4 87,11l-3 15z"/>
   <path class="fil90" d="M24175 8586c0,0 0,0 0,0l222 -257c36,47 64,103 80,164l-302 94zm-242 -40l-201 -62c18,-61 46,-115 83,-162l155 179c-15,12 -27,27 -37,45zm183 -49c-7,-5 -14,-9 -21,-12l-69 -300c25,-6 51,-9 77,-9 29,0 58,4 85,11l-72 310z"/>
   <path class="fil94" d="M24504 8693c-94,-42 -205,-70 -325,-78 -1,-10 -2,-20 -5,-29l302 -94 13 -4c12,44 18,91 18,140 0,22 -2,44 -4,65zm-802 0c-3,-21 -4,-43 -4,-65 0,-258 180,-467 403,-468 -27,0 -53,3 -78,9l4 15 69 300c-15,-7 -32,-11 -49,-11 -28,0 -55,10 -76,28l-155 -179 -9 -11c-38,48 -68,105 -87,168l13 4 201 62c-13,24 -20,52 -20,82 0,0 0,1 0,1 -76,14 -147,36 -210,64zm472 -107c-9,-38 -30,-69 -58,-89l72 -310 3 -15c-28,-7 -57,-11 -87,-11 157,0 292,103 359,254 -16,-35 -35,-67 -58,-96l-10 11 -222 257zm-72 -426l0 0 0 0 0 0z"/>
   <path class="fil26" d="M24104 9097c-224,0 -406,-210 -406,-469 0,-259 182,-469 406,-469 224,0 406,210 406,469 0,259 -182,469 -406,469zm0 -974c-241,0 -437,226 -437,505 0,279 195,505 437,505 241,0 437,-226 437,-505 0,-279 -195,-505 -437,-505z"/>
   <path class="fil90" d="M24053 8918l46 -197 27 118c-21,42 -46,75 -73,80zm-112 -143c-8,-24 -14,-48 -19,-71l110 -34 -91 105zm233 -92l-4 -5 4 1c0,1 0,2 -1,3z"/>
   <path class="fil94" d="M24046 8919c-43,0 -81,-69 -105,-143l91 -105 -110 34c-6,-29 -9,-56 -10,-76 61,-11 125,-17 191,-17 26,0 51,1 76,3 0,4 0,9 0,13 0,15 -2,32 -5,52l-4 -1 4 5c-8,49 -25,108 -48,155l-27 -118 -46 197c-2,0 -5,1 -7,1z"/>
   <path class="fil90" d="M24174 8586l0 0c0,0 0,0 0,0l0 0zm-138 -9l-103 -32c10,-18 22,-33 37,-45l66 77zm71 -42l-12 -51c7,3 14,7 21,12l-9 39z"/>
   <path class="fil96" d="M23912 8629c0,0 0,-1 0,-1 0,-30 8,-58 20,-82l103 32 -66 -77c22,-17 48,-28 76,-28 17,0 34,4 49,11l12 51 9 -39c28,20 49,52 58,89l0 0 0 0c2,9 4,19 5,29 -25,-2 -50,-3 -76,-3 -66,0 -130,6 -191,17z"/>
   <path class="fil90" d="M24046 8473c74,0 134,69 134,154 0,85 -60,154 -134,154 -74,0 -134,-69 -134,-154 0,-85 60,-154 134,-154z"/>
   <path class="fil26" d="M24103 8473c74,0 134,69 134,154 0,85 -60,154 -134,154 -74,0 -134,-69 -134,-154 0,-85 60,-154 134,-154z"/>
   <path class="fil97" d="M25717 7305c0,-42 -3,-82 -9,-118 -32,-210 -201,-380 -413,-396 -12,-1 -25,-1 -37,-1l-84 0c-172,0 -340,-49 -485,-141 -446,-282 -1457,-891 -1896,-893 -1,0 -898,-109 -1608,-109 -1362,0 -2036,108 -2036,108 -1,0 -2,0 -2,0 -753,131 -2198,974 -2295,1030 -3,2 -7,3 -11,4 -91,9 -1227,124 -2168,619 -232,122 -521,364 -521,626l108 571c22,114 122,197 238,197l3759 0c17,0 30,-12 33,-29 82,-609 310,-1083 862,-1083 431,0 668,471 645,1077 -1,19 14,34 33,34l-23 0 3457 0c17,0 30,-12 33,-29 82,-609 310,-1083 862,-1083 438,0 676,486 644,1106l111 -36c425,-140 728,-516 776,-962 28,-267 30,-495 30,-495z"/>
   <path class="fil98" d="M16600 7580l-1537 0c-4,-56 1542,-69 1542,-69 0,0 1428,-575 2009,-575 38,0 72,2 102,8 -770,83 -2116,637 -2116,637z"/>
   <path class="fil99" d="M25697 7127c-30,-127 -113,-239 -232,-293 -64,-29 -135,-44 -207,-44l-97 0c-164,0 -324,-47 -462,-134 -441,-280 -1467,-900 -1909,-900l-1042 0c-64,0 -128,7 -190,22 -760,190 -1663,1012 -1663,1012 0,0 -1207,104 -2191,629 -221,117 -503,347 -503,597 36,194 -113,372 -310,372l-2186 0c-164,0 -287,149 -257,310 12,62 65,106 128,106l3708 0c79,-622 305,-1111 866,-1111 439,0 677,489 644,1111l3497 0c79,-622 305,-1111 866,-1111 438,0 676,486 644,1106l647 -212c272,-277 270,-1281 270,-1281 0,-68 -9,-127 -21,-178z"/>
   <path class="fil90" d="M16108 8339l-1113 0c-320,0 -336,232 -390,536l2141 0c-53,-304 -319,-536 -638,-536z"/>
   <path class="fil100" d="M25652 7012c-42,-77 -106,-141 -187,-177 -64,-29 -135,-44 -207,-44l-52 0c-178,-3 -408,-75 -636,-216 -488,-303 -1376,-818 -1778,-818l-1042 0c-64,0 -128,7 -190,22 -760,190 -1663,1012 -1663,1012 0,0 -1207,104 -2191,629 -186,99 -417,279 -484,483 1647,-669 3241,-882 8431,-890z"/>
   <path class="fil97" d="M25614 8060l-536 0c-155,0 -297,-82 -382,-212 -127,-194 -311,-311 -544,-311 -237,0 -421,74 -565,203 -261,233 -595,369 -942,413l-2280 290c-247,31 -482,-116 -562,-352 -114,-336 -340,-554 -658,-554 -474,0 -740,298 -884,735 -47,142 -173,242 -322,255l-899 79 1000 0c71,0 126,62 116,133 -3,21 -6,43 -9,64l137 0c79,-622 305,-1111 866,-1111 439,0 677,489 644,1111l90 0 0 0c6,-120 102,-215 222,-215l2861 0c114,0 201,100 187,212l0 2 137 0c79,-622 305,-1111 866,-1111 438,0 676,486 644,1106l93 -30c8,-170 -2,-330 -30,-475l750 -233z"/>
   <path class="fil97" d="M19889 7612c0,0 1915,-196 2724,-244 808,-48 2496,-176 2496,-176 0,0 -2344,434 -5220,419z"/>
   <path class="fil89" d="M14263 7743c-68,91 -113,190 -113,293l3 14 3273 0c160,0 308,-96 362,-246 0,-1 1,-2 1,-3l21 -58 -3548 0z"/>
   <path class="fil89" d="M17769 7538l-571 0c-242,0 -482,57 -693,177 -199,113 -313,243 -291,360l0 1c7,34 39,57 73,57l1020 0c262,0 497,-167 585,-417l0 0c31,-86 -33,-177 -123,-177z"/>
   <path class="fil89" d="M14492 7538l-18 0c-170,135 -320,319 -320,514l15 81 583 0c57,0 111,-35 132,-90 7,-19 13,-38 17,-58 17,-90 -5,-181 -55,-259 -77,-121 -213,-187 -353,-187z"/>
   <path class="fil94" d="M17740 7538l-560 0c-237,0 -473,56 -680,172 -195,109 -307,236 -286,349l0 1c7,33 38,55 72,55l1001 0c258,0 488,-162 574,-405l0 0c30,-84 -32,-172 -121,-172z"/>
   <path class="fil101" d="M17335 7699l-303 0c-128,0 -256,30 -368,93 -106,59 -166,128 -154,189l0 0c4,18 21,30 39,30l541 0c139,0 264,-88 310,-219 16,-45 -17,-93 -65,-93z"/>
   <path class="fil26" d="M17465 7675l-272 0c-115,0 -230,27 -330,83 -95,53 -149,115 -139,169l0 0c3,16 19,27 35,27l486 0c125,0 237,-79 279,-197 15,-41 -16,-84 -59,-84z"/>
   <path class="fil94" d="M14490 7538l-18 0c-171,131 -321,309 -321,498l15 79 585 0c58,0 111,-34 133,-87 7,-18 13,-37 17,-57 17,-87 -5,-175 -56,-251 -78,-117 -214,-182 -354,-182z"/>
   <path class="fil101" d="M14632 7819l-9 0c-82,63 -154,148 -154,239l7 38 280 0c28,0 53,-16 64,-42 4,-9 6,-18 8,-27 8,-42 -2,-84 -27,-120 -37,-56 -102,-87 -170,-87z"/>
   <path class="fil26" d="M14513 7580l-12 0c-108,83 -203,196 -203,315l9 50 370 0c36,0 71,-21 84,-55 5,-11 8,-23 11,-36 11,-55 -3,-111 -35,-159 -49,-74 -135,-115 -224,-115z"/>
   <path class="fil102" d="M22996 8692l-2334 0c-86,0 -156,-70 -156,-156l0 -1355 -155 -392 18 -7 157 397 0 1357c0,75 61,136 136,136l2334 0c109,0 203,-69 234,-172 88,-289 301,-789 730,-884 140,-27 243,-140 258,-281l32 -312 -169 -372 18 -8 171 377 -32 317c-15,150 -125,270 -273,298 -419,93 -628,586 -715,871 -34,111 -135,186 -253,186z"/>
   <polygon class="fil102" points="22523,8683 22503,8682 22569,7059 22438,6690 22456,6683 22588,7056 "/>
   <path class="fil103" d="M25318 7253l34 89c60,157 192,272 351,311 15,-199 15,-348 15,-348 0,-64 -8,-121 -19,-170l-300 0c-61,0 -103,61 -81,117z"/>
   <path class="fil104" d="M25442 7266l21 56c22,59 62,109 111,144 47,34 113,0 116,-58 3,-67 3,-110 3,-110 0,-6 0,-12 0,-17 -2,-50 -42,-89 -91,-89l-108 0c-38,0 -64,38 -51,74z"/>
   <path class="fil90" d="M25702 7657l-1 0c-163,-40 -295,-158 -354,-314l-34 -89c-11,-29 -7,-59 10,-84 17,-25 45,-40 75,-40l300 0c3,0 5,2 5,5 0,3 -2,5 -5,5l-300 0c-27,0 -52,13 -67,35 -16,22 -19,50 -9,75l34 89c58,154 188,269 348,308 3,1 4,3 4,6 -1,2 -3,4 -5,4z"/>
   <path class="fil97" d="M16865 6798l568 0 -26 -225c-9,-79 -70,-135 -138,-127l-307 37c-95,11 -170,99 -180,210 -5,57 33,106 82,106z"/>
   <path class="fil90" d="M16935 6798l582 0 0 -85 -504 0c-43,0 -79,35 -79,79l0 6z"/>
   <path class="fil100" d="M16962 6483l307 -37c68,-8 129,48 138,127l5 49 -406 0c-65,0 -122,-32 -158,-81 31,-31 69,-53 112,-58z"/>
   <path class="fil100" d="M18693 6723c80,-8 -970,-24 -1680,-29 -87,49 -145,83 -162,93 -3,2 -7,3 -11,4 -81,8 -991,100 -1854,470 2023,-357 3064,-475 3708,-538z"/>
   <path class="fil98" d="M22275 7280c-49,0 -93,-17 -119,-44l225 0c5,0 10,-1 14,-2 -26,28 -70,46 -121,46zm121 -156c-5,-1 -9,-2 -14,-2l-225 0c26,-26 70,-44 119,-44 51,0 95,18 121,46z"/>
   <path class="fil98" d="M22156 7236l-24 0c-31,0 -57,-25 -57,-57 0,-31 25,-57 57,-57l24 0c-16,16 -25,36 -25,57 0,21 9,41 25,57zm240 -2c15,-16 23,-35 23,-55 0,-20 -9,-39 -23,-55 24,6 42,29 42,55 0,26 -18,49 -42,55z"/>
   <path class="fil105" d="M22381 7236l-225 0c-16,-16 -25,-36 -25,-57 0,-21 9,-41 25,-57l225 0c5,0 10,1 14,2 15,16 23,35 23,55 0,20 -9,39 -23,55 -5,1 -9,2 -14,2z"/>
   <path class="fil26" d="M22417 7236l-249 0c-31,0 -57,-25 -57,-57 0,-31 25,-57 57,-57l249 0c31,0 57,25 57,57 0,31 -25,57 -57,57z"/>
   <path class="fil98" d="M23921 7236c-49,0 -93,-17 -119,-44l225 0c5,0 10,-1 14,-2 -26,28 -70,46 -121,46zm121 -156c-5,-1 -9,-2 -14,-2l-225 0c26,-26 70,-44 119,-44 51,0 95,18 121,46z"/>
   <path class="fil98" d="M23802 7192l-24 0c-31,0 -57,-25 -57,-57 0,-31 25,-57 57,-57l23 0c-16,16 -25,36 -25,57 0,21 9,41 25,57zm240 -2c15,-16 23,-35 23,-55 0,-20 -9,-39 -23,-55 24,6 42,29 42,55 0,26 -18,49 -42,55z"/>
   <path class="fil105" d="M24027 7192l-225 0c-16,-16 -25,-36 -25,-57 0,-21 9,-41 25,-57l225 0c5,0 10,1 14,2 15,16 23,35 23,55 0,20 -9,39 -23,55 -5,1 -9,2 -14,2z"/>
   <path class="fil26" d="M24063 7192l-249 0c-31,0 -57,-25 -57,-57 0,-31 25,-57 57,-57l249 0c31,0 57,25 57,57 0,31 -25,57 -57,57z"/>
   <path class="fil90" d="M21433 5815l-2530 0c-783,231 -1962,919 -2052,972 -1,1 -3,1 -4,1l3051 0c41,-37 824,-739 1535,-973z"/>
   <path class="fil106" d="M22734 5854l-753 0c-297,0 -591,71 -850,212 -477,260 -923,664 -1059,792 1195,-99 2498,-154 3862,-154 56,0 111,0 167,1 42,0 80,-25 95,-63 17,-43 1,-92 -39,-117 -466,-300 -1106,-670 -1424,-670z"/>
   <path class="fil106" d="M18740 5868c-676,235 -1549,723 -1814,875l2583 0c192,0 379,-65 530,-184 250,-198 639,-478 1033,-654 19,-9 13,-37 -8,-37l-2324 0z"/>
   <path class="fil89" d="M20901 5988c57,-29 114,-57 171,-83 19,-9 13,-37 -8,-37l-2324 0c-676,235 -1549,723 -1814,875l932 0c-4,-11 -5,-25 -2,-40l-233 -75c21,-106 892,-475 1087,-546 485,-176 1260,-157 1260,-157 -10,51 -74,281 -288,782 -314,9 -626,21 -938,35l765 0c106,0 209,-20 307,-58 197,-461 265,-673 283,-760 0,0 667,-9 802,62zm2888 548l-1411 0c-225,0 -445,-64 -635,-184l-369 -233c-48,-30 -26,-104 30,-104l1671 0c137,0 271,39 387,112l376 238c79,50 43,171 -50,171zm-2406 0l-40 149c-4,0 -8,0 -12,0 -144,0 -288,0 -432,2 144,-316 183,-501 193,-586 74,49 147,102 219,158 77,61 103,160 72,277zm2775 -12c-466,-300 -1106,-670 -1424,-670l-753 0c-297,0 -591,71 -850,212 -29,16 -57,32 -86,49 -10,81 -47,262 -188,572 -202,2 -403,5 -604,9 -80,70 -143,127 -180,163 1195,-99 2498,-154 3862,-154 56,0 111,0 167,1 42,0 80,-25 95,-63 17,-43 1,-92 -39,-117z"/>
   <path class="fil93" d="M22367 6536l-99 0 -1 -220c-1,-104 -90,-182 -210,-182l-145 0c-120,0 -236,77 -272,182l-76 220 -99 0c-105,0 -204,75 -219,168l-12 74c421,-24 852,-42 1292,-54l3 -20c16,-93 -57,-168 -163,-168zm1469 0l-98 0 -1 -220c0,-20 -4,-38 -10,-55 -76,-44 -152,-86 -227,-126l-118 0c-120,0 -236,77 -272,182l-76 220 -98 0c-106,0 -204,75 -219,168l-3 15c401,-10 808,-15 1221,-15 22,0 43,0 65,0l0 0c16,-93 -57,-168 -163,-168z"/>
   <path class="fil107" d="M20392 6578c-148,122 -262,226 -319,280 113,-9 227,-18 342,-27l22 -127c8,-50 -10,-95 -44,-126zm1639 -42l-99 0 -1 -220c-1,-104 -90,-182 -210,-182l-145 0c-120,0 -236,77 -272,182l-76 220 -99 0c-106,0 -204,75 -219,168l-16 94c421,-27 853,-48 1294,-64l5 -30c16,-93 -57,-168 -163,-168zm-1858 -220c-1,-104 -90,-182 -210,-182l-145 0c-120,0 -236,77 -272,182l-76 220 -98 0c-106,0 -204,75 -219,168l-7 40 363 0c192,0 379,-65 530,-184 42,-33 87,-68 136,-104l-1 -139z"/>
   <path class="fil108" d="M17094 6743l2415 0c155,0 306,-43 438,-122l-2339 0c-96,0 -342,48 -515,122z"/>
   <path class="fil109" d="M20663 6689l-21 -60c-37,-106 0,-223 91,-288 98,-70 202,-139 309,-202 -14,89 -55,261 -180,537l-20 -27c-14,-19 -29,-28 -43,-28 -2,0 -4,0 -6,0 -21,4 -40,27 -53,66 -26,0 -51,1 -77,1zm236 -2c139,-304 180,-487 192,-576 3,-2 6,-3 9,-5 71,47 142,99 211,153 5,4 10,8 14,12 -8,14 -15,29 -21,44l-76 220 -99 0c-99,0 -191,66 -215,150 -5,0 -11,0 -16,0zm2976 -207c-46,-25 -92,-49 -137,-71l-1 -93c0,-5 0,-11 -1,-16l37 23c45,41 81,91 106,147 -1,4 -2,7 -4,11zm-682 -278c-35,-6 -68,-10 -98,-10l-673 0c-15,-70 -30,-129 -43,-177l697 0c69,0 138,10 204,29 20,9 40,19 60,29 5,11 15,31 27,61 -64,3 -127,28 -175,67zm-974 -5c-38,-39 -95,-62 -161,-62l-145 0c-34,0 -67,6 -99,17 -28,-11 -59,-17 -93,-17l-145 0c-46,0 -90,11 -130,30l-72 -45c-48,-30 -26,-104 30,-104l854 0c13,48 28,107 44,178 -28,1 -56,2 -84,4zm1240 -62l-50 0c-5,-12 -9,-23 -13,-33 21,11 42,22 64,33z"/>
   <path class="fil110" d="M20721 6769c-24,-14 -43,-37 -53,-65l-5 -15c26,0 51,-1 77,-1 -4,11 -7,24 -10,38l-4 21 -4 21zm184 -34l-43 -58c125,-276 166,-448 180,-537 16,-10 32,-19 48,-28 -12,89 -53,271 -192,576 5,0 11,0 16,0 -2,6 -3,12 -4,18l-5 30zm2980 -249c-4,-2 -7,-4 -11,-6 1,-3 3,-7 4,-11 3,5 5,11 7,17zm-113 -163l-37 -23c0,-3 -1,-6 -1,-9 13,10 26,21 38,32zm-2447 -51c-5,-4 -9,-8 -14,-12 -69,-54 -140,-106 -211,-153 14,-8 27,-15 41,-23 252,-137 542,-210 841,-210l234 0c6,18 22,65 43,142l-854 0c-57,0 -78,74 -30,104l72 45c-50,24 -93,62 -121,107zm1955 -228c-66,-19 -135,-29 -204,-29l-697 0c-18,-66 -32,-113 -42,-142l397 0c135,0 330,69 546,171z"/>
   <path class="fil111" d="M23737 6408c-98,-49 -193,-93 -282,-127 -17,-62 -33,-110 -47,-147l50 0c75,40 152,82 228,125 17,10 33,20 48,31 0,3 1,6 1,9 1,5 1,11 1,16l1 93zm-327 -145c-79,-29 -153,-51 -218,-62 48,-39 110,-64 175,-67 13,32 28,75 44,130zm-1496 -22c-20,-41 -55,-73 -101,-91 31,-11 65,-17 99,-17l145 0c67,0 124,24 161,62 -103,7 -204,22 -304,46z"/>
   <path class="fil112" d="M20934 6773l-28 -38 5 -30c1,-6 2,-12 4,-18 24,-84 117,-150 215,-150l99 0 76 -220c5,-15 12,-30 21,-44 27,-45 70,-83 121,-107 40,-19 85,-30 130,-30l145 0c34,0 65,6 93,17 46,18 82,51 101,91 -147,35 -290,89 -423,162 -198,108 -391,241 -558,368z"/>
   <path class="fil113" d="M20417 6280l0 0c149,-102 314,-205 484,-293 0,0 0,0 0,0 -169,88 -334,191 -483,293z"/>
   <path class="fil109" d="M18109 6622l-484 0c55,-114 894,-469 1085,-539 398,-145 992,-157 1192,-157 44,0 68,1 68,1 -5,24 -22,90 -62,208l-90 0c-106,0 -209,60 -256,147l-6 0c-481,0 -956,108 -1390,314 -19,9 -37,18 -56,27zm2308 -341l-247 0c-14,-66 -66,-117 -138,-137 38,-108 58,-176 67,-217 0,0 26,0 69,0 174,0 624,6 733,62 -169,88 -334,191 -484,293z"/>
   <path class="fil110" d="M17094 6743l-168 0c265,-152 1138,-641 1814,-875l2324 0c12,0 19,10 19,19 0,7 -4,14 -11,17l0 0c-57,26 -114,53 -171,83 0,0 0,0 0,0 -109,-56 -560,-62 -733,-62 -43,0 -69,0 -69,0 -9,41 -28,109 -67,217 -21,-6 -45,-9 -69,-9l-55 0c40,-117 57,-183 62,-208 0,0 -25,-1 -68,-1 -200,0 -794,13 -1192,157 -191,69 -1029,425 -1085,539l-17 0c-96,0 -342,48 -515,122z"/>
   <path class="fil112" d="M20170 6280l-608 0c47,-86 150,-147 256,-147l145 0c25,0 48,3 69,9 72,20 124,71 138,137z"/>
   <path class="fil114" d="M17863 6743l-769 0 0 0c173,-74 419,-122 515,-122l501 0c-84,41 -167,82 -246,122z"/>
   <path class="fil90" d="M23934 6685c-136,0 -271,0 -407,2 -34,-316 -97,-501 -133,-586 96,49 194,102 291,158 105,61 183,160 217,277l42 149c-4,0 -8,0 -11,0zm-3266 19l-26 -75c-37,-106 0,-223 91,-288 128,-91 267,-181 407,-258 252,-137 542,-210 841,-210l234 0c18,51 110,334 177,835 -543,17 -1077,43 -1601,77 -55,4 -105,-30 -124,-82zm2671 -631c21,41 108,228 150,614 -329,3 -656,9 -980,19 -62,-473 -143,-744 -172,-832l397 0c147,0 366,82 606,200zm828 435c-246,-158 -534,-332 -800,-464l0 0 0 0c-250,-124 -479,-210 -634,-210l-753 0c-305,0 -602,74 -859,215 -481,262 -935,675 -1063,795 -6,6 -8,14 -4,22 3,7 10,11 18,11 0,0 1,0 2,0 1229,-102 2527,-154 3860,-154 53,0 106,0 159,1l8 0c50,0 95,-30 113,-76 20,-52 1,-110 -46,-140z"/>
   <path class="fil115" d="M25512 7307c-12,0 -25,-2 -37,-7 -8,-4 -17,-8 -24,-12l-9 -22c-13,-36 13,-74 51,-74l85 0c1,3 2,6 2,9 0,3 0,6 0,9 0,0 0,23 -3,59 -2,22 -33,38 -66,38z"/>
   <path class="fil98" d="M21066 7413c-7,0 -15,-4 -23,-12l-249 -256c102,-8 207,-16 315,-23 9,62 12,128 6,193l0 0c-5,60 -26,98 -50,98z"/>
   <path class="fil116" d="M20794 7145l-292 -301c41,-3 81,-6 122,-9l70 70 15 -75c85,-6 170,-11 255,-17l72 96 0 0c7,9 13,20 20,31 4,8 8,17 12,26 2,4 3,7 5,11 5,12 9,25 14,39 0,1 0,1 1,2 10,32 17,67 23,104 -108,7 -213,15 -315,23z"/>
   <path class="fil117" d="M20928 6777c2,-1 4,-3 6,-4l3 4c-3,0 -6,0 -9,1z"/>
   <path class="fil118" d="M20740 6688c13,-39 33,-62 53,-66 2,0 4,0 6,0 14,0 29,9 43,28l20 27c-2,4 -3,7 -5,11 -39,0 -79,1 -118,1z"/>
   <path class="fil119" d="M20784 6786c-23,0 -44,-6 -63,-17l4 -21 4 -21c3,-14 6,-27 10,-38 39,0 78,-1 118,-1 2,-3 3,-7 5,-11l43 58 -8 44c-35,2 -71,5 -106,7 -3,0 -5,0 -8,0z"/>
   <path class="fil120" d="M20898 6779l8 -44 28 38c-2,1 -4,3 -6,4 -10,1 -20,1 -30,2z"/>
   <path class="fil90" d="M20503 6844l-26 -26 15 -114 132 132c-41,3 -81,6 -122,9zm207 -14l12 -61c19,11 40,17 63,17 3,0 5,0 8,0 35,-2 70,-5 106,-7 10,-1 20,-1 30,-2 3,0 6,0 9,-1l27 37c-85,5 -170,11 -255,17z"/>
   <path class="fil97" d="M21130 6798l-568 0 26 -225c9,-79 70,-135 138,-127l307 37c95,11 170,99 180,210 5,57 -33,106 -82,106z"/>
   <path class="fil90" d="M21060 6798l-582 0 0 -85 504 0c43,0 79,35 79,79l0 6z"/>
   <path class="fil100" d="M21033 6483l-307 -37c-68,-8 -129,48 -138,127l-6 49 406 0c65,0 122,-32 158,-81 -31,-31 -69,-53 -112,-58z"/>
  </g>
  <polygon class="fil121" points="22903,4262 23548,4262 23548,6672 23548,14917 24377,15668 23761,15672 22903,14927 "/>
  <polygon class="fil82" points="22061,4262 22924,4262 22924,14967 22061,14967 "/>
  <path class="fil122 str0" d="M22362 9770l0 -278c0,0 37,-212 294,-214 257,-3 370,0 370,0 0,0 215,23 225,249 31,718 0,1476 0,2201l127 3 45 1 0 71 -5 1179"/>
  <path class="fil123" d="M23356 12521l-546 0c-55,0 -100,45 -100,100l0 1464c0,55 45,100 100,100l546 0 0 -1664z"/>
  <rect class="fil124" x="23101" y="12521" width="1196" height="1662" rx="111" ry="111"/>
  <rect class="fil125" x="23245" y="12691" width="921" height="1334" rx="85" ry="85"/>
  <ellipse class="fil66" cx="23441" cy="13343" rx="66" ry="65"/>
  <rect class="fil126" x="21884" y="9716" width="1201" height="1381" rx="148" ry="111"/>
  <rect class="fil88" x="21345" y="9805" width="397" height="122" rx="48" ry="61"/>
  <rect class="fil127" x="21260" y="8916" width="566" height="915" rx="63" ry="63"/>
  <rect class="fil128" x="21884" y="9714" width="900" height="1381" rx="111" ry="111"/>
  <rect class="fil72" x="22318" y="10598" width="378" height="238"/>
  <ellipse class="fil129" cx="22104" cy="10720" rx="126" ry="119"/>
  <ellipse class="fil129" cx="22104" cy="10380" rx="126" ry="119"/>
  <ellipse class="fil129" cx="22104" cy="10037" rx="126" ry="119"/>
  <ellipse class="fil130" cx="22488" cy="10191" rx="126" ry="157"/>
  <ellipse class="fil131" cx="22488" cy="10191" rx="95" ry="118"/>
  <ellipse class="fil132" cx="22104" cy="10037" rx="89" ry="84"/>
  <ellipse class="fil132" cx="22104" cy="10380" rx="89" ry="84"/>
  <ellipse class="fil132" cx="22104" cy="10720" rx="89" ry="84"/>
  <polygon class="fil83" points="22051,14927 20913,15672 23766,15672 23784,15672 22922,14929 "/>
  <ellipse class="fil133" cx="18348" cy="15555" rx="161" ry="35"/>
  <rect class="fil134" x="18272" y="15378" width="151" height="157"/>
  <ellipse class="fil135" cx="18348" cy="15378" rx="75" ry="25"/>
  <ellipse class="fil134" cx="18347" cy="15538" rx="75" ry="25"/>
  <ellipse class="fil133" cx="23917" cy="15555" rx="161" ry="35"/>
  <rect class="fil134" x="23841" y="15378" width="151" height="157"/>
  <ellipse class="fil135" cx="23917" cy="15378" rx="75" ry="25"/>
  <ellipse class="fil134" cx="23916" cy="15538" rx="75" ry="25"/>
  <ellipse class="fil133" cx="21408" cy="15555" rx="161" ry="35"/>
  <rect class="fil134" x="21333" y="15378" width="151" height="157"/>
  <ellipse class="fil135" cx="21408" cy="15378" rx="75" ry="25"/>
  <ellipse class="fil134" cx="21408" cy="15538" rx="75" ry="25"/>
  <g id="_2362103502880">
   <ellipse class="fil133" cx="15682" cy="15555" rx="161" ry="35"/>
   <rect class="fil134" x="15607" y="15378" width="151" height="157"/>
   <ellipse class="fil135" cx="15682" cy="15378" rx="75" ry="25"/>
   <ellipse class="fil134" cx="15682" cy="15538" rx="75" ry="25"/>
  </g>
  <path class="fil136" d="M26697 13213c68,-1 94,33 107,42l1 61c-13,-7 -39,-41 -96,-41 -140,1 -145,226 -141,329 3,80 6,94 15,118l-75 0c-22,-111 -6,-310 39,-393 35,-63 93,-116 151,-116z"/>
  <path class="fil136" d="M26999 13213c68,-1 94,33 107,42l1 61c-13,-7 -39,-41 -96,-41 -140,1 -145,226 -141,329 3,80 6,94 15,118l-75 0c-22,-111 -6,-310 39,-393 35,-63 93,-116 151,-116z"/>
  <path class="fil136" d="M27295 13213c68,-1 94,33 107,42l1 61c-13,-7 -39,-41 -96,-41 -140,1 -145,226 -141,329 3,80 6,94 15,118l-75 0c-22,-111 -6,-310 39,-393 35,-63 93,-116 151,-116z"/>
  <polygon class="fil48" points="3985,15474 4223,15494 4131,18656 3927,18656 "/>
  <path class="fil48" d="M9725 15452l-156 -16c0,0 106,3220 114,3220 8,0 138,0 138,0l-96 -3204z"/>
  <ellipse class="fil137" cx="20522" cy="16471" rx="8223" ry="402"/>
  <path class="fil138" d="M21324 8916l180 0 0 915 -180 0c-35,0 -63,-29 -63,-63l0 -789c0,-35 29,-63 63,-63z"/>
  <ellipse class="fil70" cx="25880" cy="12575" rx="43" ry="39"/>
  <ellipse class="fil70" cx="25932" cy="12444" rx="43" ry="39"/>
  <path class="fil136" d="M26062 13213c68,-1 94,33 107,42l1 61c-13,-7 -39,-41 -96,-41 -140,1 -145,226 -141,329 3,80 6,94 15,118l-75 0c-22,-111 -6,-310 39,-393 35,-63 93,-116 151,-116z"/>
 </g>
</svg>
