<?xml version="1.0" encoding="UTF-8"?>
<!DOCTYPE svg PUBLIC "-//W3C//DTD SVG 1.1//EN" "http://www.w3.org/Graphics/SVG/1.1/DTD/svg11.dtd">
<!-- Creator: CorelDRAW 2018 (64-Bit) -->
<svg xmlns="http://www.w3.org/2000/svg" xml:space="preserve" width="171.733mm" height="38.389mm" version="1.1" style="shape-rendering:geometricPrecision; text-rendering:geometricPrecision; image-rendering:optimizeQuality; fill-rule:evenodd; clip-rule:evenodd"
viewBox="0 0 17173.36 3838.9"
 xmlns:xlink="http://www.w3.org/1999/xlink">
 <defs>
  <style type="text/css">
   <![CDATA[
    .fil1 {fill:#008DD2}
    .fil2 {fill:#2E3F85}
    .fil0 {fill:white}
    .fil4 {fill:#008DD2;fill-rule:nonzero}
    .fil3 {fill:#2E3F85;fill-rule:nonzero}
   ]]>
  </style>
 </defs>
 <g id="Слой_x0020_1">
  <metadata id="CorelCorpID_0Corel-Layer"/>
  <g id="_2392505880704">
   <path class="fil0" d="M-0 2114.15c0,-952.55 772.19,-1724.74 1724.74,-1724.74 55.4,0 110.16,2.72 164.18,7.78 199.69,-204.2 476.35,-331.83 831.98,-372.03l222.47 -25.16 0 893.64c312.68,312.16 506.11,743.76 506.11,1220.51 0,952.55 -772.19,1724.74 -1724.74,1724.74 -952.55,0 -1724.74,-772.19 -1724.74,-1724.74z"/>
   <path class="fil1" d="M2743.37 2310.79l0 -2086.9c-584.12,66.04 -952.69,394.38 -1031.88,1074.87l1031.88 1012.03z"/>
   <path class="fil1" d="M1691.85 1325.36c10.6,495.06 359.9,906.67 825.44,1012.54l-1290.62 0c-171.83,-188.72 -302,-429.25 -302,-714.91 0,-285.66 104.17,-563.68 299.51,-756.3l467.67 458.67z"/>
   <path class="fil2" d="M2743.37 2361.78c-92.95,591.3 -514.13,1038 -1027.41,1038 -513.28,0 -964.86,-458.76 -1049.98,-1061.88l560.69 0c196.94,238.83 461.2,387.2 760.49,387.2 299.29,0 560.87,-138.53 756.21,-363.32z"/>
   <path class="fil2" d="M1724.74 389.41c-952.55,0 -1724.74,772.19 -1724.74,1724.74 0,952.55 772.19,1724.74 1724.74,1724.74 952.55,0 1724.74,-772.19 1724.74,-1724.74 0,-476.75 -193.43,-908.35 -506.11,-1220.51l0 218.44c224.34,272.48 359.06,621.54 359.06,1002.06 0,871.34 -706.35,1577.69 -1577.69,1577.69 -871.34,0 -1577.69,-706.35 -1577.69,-1577.69 0,-871.34 706.35,-1577.69 1577.69,-1577.69 15.93,0 31.79,0.31 47.61,0.78 35.42,-50.04 74.3,-96.72 116.62,-139.99 -54.07,-5.11 -108.83,-7.83 -164.23,-7.83z"/>
  </g>
  <path class="fil0" d="M12174.4 2891.86c-24.27,-61.76 -37.08,-128.09 -37.08,-195.97l0 -884.47 738.19 0 0 254.66 -483.53 0 0 296.86 463.53 0 0 254.66 -463.53 0 0 78.29c0,75.26 29.89,146.52 83.06,199.7 53.17,53.17 124.45,83.07 199.71,83.07l200.76 0 0 254.66 -200.76 0c-142.84,0 -278.81,-56.7 -379.77,-157.67 -51.24,-51.25 -91.08,-111.5 -117.89,-177.09l-48.88 65.01c-65.56,87.22 -150.11,159.1 -247.46,208.54 -96.69,49.1 -203.01,74.66 -311.47,74.66 -191.01,0 -370.33,-78.93 -502.29,-216.49 -133.2,-138.86 -205.62,-323.95 -205.62,-516.07 0,-192.12 72.42,-377.21 205.62,-516.07 131.96,-137.56 311.28,-216.49 502.29,-216.49 91.8,0 182.45,18.44 267.03,54.11 84.96,35.83 162.1,88.41 226.98,153.89l59.74 60.28 -180.41 179.38 -59.93 -60.46c-41.53,-41.9 -90.79,-75.79 -145.19,-98.74 -53.32,-22.49 -110.37,-33.8 -168.22,-33.8 -121.57,0 -234.87,50.59 -318.77,138.05 -87.7,91.42 -134.48,213.51 -134.48,339.85 0,126.34 46.78,248.43 134.48,339.85 83.9,87.46 197.2,138.05 318.77,138.05 68.45,0 135.42,-15.98 196.45,-46.98 62.63,-31.8 116.97,-78.2 159.14,-134.3l51.02 -67.87 198.51 148.9zm3685.91 -464.12c18.35,-160.53 87.63,-311.72 200.7,-429.6 131.96,-137.56 311.28,-216.49 502.29,-216.49 91.8,0 182.45,18.44 267.03,54.11 84.96,35.83 162.1,88.41 226.98,153.89l59.74 60.28 -180.41 179.38 -59.93 -60.46c-41.53,-41.9 -90.79,-75.79 -145.19,-98.74 -53.32,-22.49 -110.37,-33.8 -168.22,-33.8 -121.57,0 -234.87,50.59 -318.77,138.05 -87.7,91.42 -134.48,213.51 -134.48,339.85 0,126.34 46.78,248.43 134.48,339.85 83.9,87.46 197.2,138.05 318.77,138.05 68.45,0 135.42,-15.98 196.45,-46.98 62.63,-31.8 116.97,-78.2 159.14,-134.3l51.02 -67.87 203.45 152.6 -51.13 68.01c-65.56,87.22 -150.11,159.1 -247.46,208.54 -96.69,49.1 -203.01,74.66 -311.47,74.66 -191.01,0 -370.33,-78.93 -502.29,-216.49 -113.07,-117.88 -182.35,-269.07 -200.7,-429.6l0 620.31 -254.66 0 0 -23.01c-75.54,42.89 -160.86,65.34 -248,65.34 -133.67,0 -260.92,-52.72 -355.44,-147.23 -94.52,-94.51 -147.23,-221.77 -147.23,-355.43l0 -956.91 254.66 0 0 956.91c0,66.06 25.92,128.65 72.63,175.36 46.72,46.71 109.31,72.64 175.38,72.64 66.06,0 128.66,-25.92 175.37,-72.63 46.71,-46.71 72.63,-109.31 72.63,-175.37l0 -956.91 254.66 0 0 623.99zm-1982.42 -146.14c-3.54,52.02 -14.88,103.53 -34.31,151.93 -75.03,186.92 -243.94,282.18 -441.24,282.18l-185.88 0 0 -254.66 185.88 0c90.34,0 169.86,-34.47 205.1,-122.27 11.88,-29.6 17.41,-61.8 17.34,-93.65 -0.07,-32.58 -6,-65.45 -17.76,-95.85 -30.24,-78.21 -92.77,-124.87 -177.51,-124.87 -68.3,0 -131.03,23.27 -177.04,74.86 -47.93,53.74 -68.45,126.84 -68.45,197.79l0 923.93 -254.66 0 0 -923.91c0,-133.96 43.23,-266.43 133.09,-367.19 94.78,-106.28 225.41,-160.14 367.04,-160.14 191.56,0 346.02,109.97 414.79,287.79 18.84,48.73 30.08,100.45 33.61,152.6l0 -398.72 512.75 0c101.1,0 197.41,39.9 268.9,111.39 71.49,71.49 111.39,167.81 111.39,268.91 0,93.75 -34.42,183.78 -96.33,253.79 3.62,3.4 7.19,6.86 10.71,10.38 88.93,88.93 138.54,208.67 138.54,334.44 0,122.93 -39.23,245.02 -123.41,336.38 -84.37,91.56 -198.74,136.6 -322.4,136.6 -141.64,0 -272.27,-53.85 -367.06,-160.14 -89.86,-100.76 -133.09,-233.21 -133.09,-367.17l0 -454.4zm-3164.52 163.91c3.62,3.4 7.19,6.86 10.71,10.38 88.94,88.92 138.54,208.67 138.54,334.44 0,122.93 -39.23,245.02 -123.41,336.38 -84.37,91.56 -198.74,136.6 -322.4,136.6 -126.08,0 -244.49,-42.73 -336.97,-129.35 -92.52,-86.67 -145.64,-205.38 -159.43,-330.56l-9.3 -84.47 252.99 -27.9 9.29 84.52c7.09,64.43 32.62,127.92 80.55,172.81 44.84,42 102.1,60.29 162.87,60.29 51.57,0 99.65,-15.77 135.2,-54.36 40.24,-43.69 55.95,-105.78 55.95,-163.96 0,-58.17 -22.81,-113.25 -63.94,-154.38 -41.13,-41.13 -96.21,-63.94 -154.38,-63.94l-255.88 0 0 -254.66 255.88 0c15.07,0 30.14,0.71 45.15,2.14 31.48,-1.36 60.72,-14.7 82.89,-37.06 23.98,-24.19 37.36,-56.64 37.36,-90.71 0,-33.51 -13.1,-65.16 -36.79,-88.85 -23.69,-23.69 -55.33,-36.79 -88.84,-36.79l-339.11 0 0 -254.66 339.11 0c101.1,0 197.41,39.9 268.9,111.39 71.49,71.49 111.39,167.81 111.39,268.91 0,93.74 -34.43,183.78 -96.33,253.79zm-1078.76 300.17l-495.88 0 0 475.31 -254.66 0 0 -933.45c0,-133.55 53.15,-260.68 147.53,-355.07 94.38,-94.39 221.52,-147.54 355.07,-147.54 133.55,0 260.69,53.15 355.07,147.54 94.38,94.39 147.53,221.52 147.53,355.07l0 933.45 -254.66 0 0 -475.31zm-4022.15 -300.32c3.68,3.45 7.3,6.96 10.87,10.53 88.93,88.93 138.54,208.67 138.54,334.44 0,122.93 -39.23,245.02 -123.41,336.38 -84.37,91.56 -198.74,136.6 -322.4,136.6 -141.64,0 -272.27,-53.85 -367.06,-160.14 -89.86,-100.76 -133.09,-233.21 -133.09,-367.17l0 -924.58 512.75 0c101.1,0 197.41,39.9 268.9,111.39 71.49,71.49 111.39,167.81 111.39,268.91 0,93.75 -34.53,183.69 -96.49,253.64zm3252.24 -379.28l-307.22 0c-53.99,0 -105.05,21.43 -143.2,59.57 -38.14,38.15 -59.57,89.21 -59.57,143.2l0 952.14 -254.66 0 0 -952.14c0,-121.58 48.23,-237.33 134.17,-323.26 85.93,-85.94 201.68,-134.17 323.26,-134.17l307.22 0 0 254.66zm-4370.62 679.6l-495.88 0 0 475.31 -254.66 0 0 -933.45c0,-133.55 53.15,-260.68 147.53,-355.07 94.38,-94.39 221.52,-147.54 355.07,-147.54 133.55,0 260.69,53.15 355.07,147.54 94.38,94.39 147.53,221.52 147.53,355.07l0 933.45 -254.66 0 0 -475.31zm1824.18 -679.6l0 1154.91 -254.66 0 0 -1154.91 -346.28 0 0 -254.66 947.22 0 0 254.66 -346.28 0zm466.75 -67.63c131.32,-137.56 309.98,-216.8 500.63,-216.8 190.65,0 369.31,79.24 500.63,216.8 132.65,138.96 204.49,324 204.49,515.76 0,191.76 -71.84,376.8 -204.49,515.76 -131.32,137.56 -309.98,216.8 -500.63,216.8 -190.65,0 -369.31,-79.24 -500.63,-216.8 -132.65,-138.96 -204.49,-324 -204.49,-515.76 0,-191.76 71.84,-376.8 204.49,-515.76zm7610.95 321.04c31.51,-1.35 60.77,-14.69 82.95,-37.07 23.97,-24.19 37.36,-56.64 37.36,-90.7 0,-33.51 -13.1,-65.16 -36.79,-88.85 -23.69,-23.69 -55.33,-36.79 -88.84,-36.79l-258.09 0 0 669.9c0,70.96 20.51,144.06 68.45,197.81 46.01,51.58 108.72,74.86 177.02,74.86 51.59,0 99.66,-15.76 135.22,-54.36 40.25,-43.68 55.95,-105.78 55.95,-163.96 0,-58.17 -22.81,-113.25 -63.94,-154.38 -41.13,-41.13 -96.21,-63.94 -154.38,-63.94l-185.88 0 0 -254.66 185.88 0c15.05,0 30.1,0.71 45.09,2.14zm-5257.23 171.53l495.88 0 0 -203.48c0,-65.97 -26.35,-128.41 -72.94,-175.01 -46.59,-46.59 -109.04,-72.94 -175,-72.94 -65.96,0 -128.41,26.35 -175,72.94 -46.59,46.6 -72.94,109.04 -72.94,175.01l0 203.48zm-3805.59 -171.62c31.73,-1.28 61.3,-14.67 83.67,-37.18 23.97,-24.12 37.48,-56.46 37.48,-90.5 0,-33.51 -13.1,-65.16 -36.79,-88.85 -23.69,-23.69 -55.33,-36.79 -88.84,-36.79l-258.09 0 0 669.9c0,70.96 20.51,144.06 68.45,197.81 46.01,51.58 108.72,74.86 177.02,74.86 51.59,0 99.66,-15.76 135.22,-54.36 40.25,-43.68 55.95,-105.78 55.95,-163.96 0,-58.17 -22.81,-113.25 -63.94,-154.38 -41.13,-41.13 -96.21,-63.94 -154.38,-63.94l-185.88 0 0 -254.66 185.88 0c14.77,0 29.54,0.68 44.25,2.05zm-1334.94 171.62l495.88 0 0 -203.48c0,-65.97 -26.35,-128.41 -72.94,-175.01 -46.59,-46.59 -109.04,-72.94 -175,-72.94 -65.96,0 -128.41,26.35 -175,72.94 -46.59,46.6 -72.94,109.04 -72.94,175.01l0 203.48zm3287.44 -454.71c-120.87,0 -233.3,50.6 -316.49,137.74 -87.46,91.61 -133.97,213.87 -133.97,340.16 0,126.29 46.51,248.55 133.97,340.16 83.19,87.14 195.62,137.74 316.49,137.74 120.87,0 233.3,-50.6 316.49,-137.74 87.46,-91.61 133.97,-213.87 133.97,-340.16 0,-126.29 -46.51,-248.55 -133.97,-340.16 -83.19,-87.14 -195.62,-137.74 -316.49,-137.74z"/>
  <path class="fil3" d="M15024.64 1888.75l0 871.91c0,91.96 37.28,175.22 97.53,235.47 60.26,60.25 143.52,97.53 235.48,97.53 91.96,0 175.22,-37.28 235.47,-97.53 60.25,-60.25 97.53,-143.51 97.53,-235.47l0 -871.91 84.66 0 0 1247.24 -84.66 0 0 -123.21c-11.57,15.25 -24.16,29.7 -37.67,43.21 -75.57,75.57 -180,122.33 -295.33,122.33 -115.33,0 -219.76,-46.76 -295.34,-122.33 -75.57,-75.57 -122.33,-180 -122.33,-295.33l0 -871.91 84.66 0zm-9836.64 513.6l100.88 0c13.85,0 27.53,0.73 41.01,2.15 57.38,-0.5 109.4,-24.33 147.2,-62.37 38.38,-38.63 62.19,-91.96 62.19,-150.41 0,-58.17 -23.58,-110.84 -61.69,-148.95 -38.11,-38.11 -90.78,-61.69 -148.94,-61.69l-343.09 0 0 754.9c0,99.58 32.26,189.63 90.02,254.39 56.82,63.71 139.18,103.28 240.45,103.28 83.91,0 151.06,-31.11 197.73,-81.76 50.72,-55.05 78.44,-133.71 78.44,-221.56 0,-83.76 -33.96,-159.6 -88.84,-214.48 -54.88,-54.88 -130.72,-88.84 -214.48,-88.84l-100.88 0 0 -84.66zm286.72 47.33c32.63,17.84 62.42,40.23 88.5,66.31 70.2,70.2 113.64,167.21 113.64,274.34 0,108.98 -35.66,207.95 -100.92,278.78 -62.34,67.65 -150.71,109.2 -259.89,109.2 -127.1,0 -231.15,-50.45 -303.63,-131.72 -71.55,-80.23 -111.52,-190.19 -111.52,-310.59l0 -839.58 427.75 0c81.53,0 155.37,33.06 208.8,86.49 53.43,53.43 86.49,127.28 86.49,208.81 0,81.46 -33.3,155.89 -86.99,209.93 -18.5,18.62 -39.42,34.81 -62.23,48.03zm-1561.53 126.34l665.88 0 0 -288.48c0,-91.51 -37.48,-174.75 -97.83,-235.11 -60.36,-60.36 -143.6,-97.84 -235.11,-97.84 -91.51,0 -174.75,37.48 -235.11,97.84 -60.35,60.36 -97.83,143.6 -97.83,235.11l0 288.48zm665.88 84.66l-665.88 0 0 475.31 -84.66 0 0 -848.45c0,-114.88 46.98,-219.31 122.63,-294.97 75.66,-75.66 180.09,-122.64 294.97,-122.64 114.88,0 219.31,46.98 294.97,122.64 75.65,75.66 122.63,180.09 122.63,294.97l0 848.45 -84.66 0 0 -475.31zm1223.24 -764.26l777.22 0 0 84.66 -346.28 0 0 1154.91 -84.66 0 0 -1154.91 -346.28 0 0 -84.66zm1483.32 54.89c-147.57,0 -281.22,62.69 -377.97,164.04 -97.3,101.91 -157.49,242.94 -157.49,398.86 0,155.92 60.19,296.95 157.49,398.86 96.75,101.35 230.4,164.04 377.97,164.04 147.57,0 281.22,-62.69 377.97,-164.04 97.3,-101.91 157.49,-242.94 157.49,-398.86 0,-155.92 -60.19,-296.95 -157.49,-398.86 -96.75,-101.35 -230.4,-164.04 -377.97,-164.04zm-439.15 105.84c112.35,-117.69 267.63,-190.5 439.15,-190.5 171.52,0 326.8,72.81 439.15,190.5 111.81,117.11 180.97,278.74 180.97,457.06 0,178.32 -69.16,339.95 -180.97,457.06 -112.35,117.69 -267.63,190.5 -439.15,190.5 -171.52,0 -326.8,-72.81 -439.15,-190.5 -111.81,-117.11 -180.97,-278.74 -180.97,-457.06 0,-178.32 69.16,-339.95 180.97,-457.06zm7403.5 345.2l100.88 0c14.13,0 28.08,0.76 41.83,2.24 57.21,-0.56 108.96,-24.38 146.58,-62.33 38.28,-38.62 61.99,-92.01 61.99,-150.54 0,-58.17 -23.58,-110.84 -61.69,-148.95 -38.11,-38.11 -90.78,-61.69 -148.94,-61.69l-343.09 0 0 754.9c0,99.58 32.26,189.63 90.02,254.39 56.82,63.71 139.18,103.28 240.45,103.28 83.91,0 151.06,-31.11 197.73,-81.76 50.72,-55.05 78.44,-133.71 78.44,-221.56 0,-83.76 -33.96,-159.6 -88.84,-214.48 -54.88,-54.88 -130.72,-88.84 -214.48,-88.84l-100.88 0 0 -84.66zm287 47.49c32.52,17.81 62.21,40.14 88.22,66.15 70.2,70.2 113.64,167.21 113.64,274.34 0,108.98 -35.66,207.95 -100.92,278.78 -62.34,67.65 -150.71,109.2 -259.89,109.2 -127.1,0 -231.15,-50.45 -303.63,-131.72 -71.55,-80.23 -111.52,-190.19 -111.52,-310.59l0 -839.58 427.75 0c81.53,0 155.37,33.06 208.8,86.49 53.43,53.43 86.49,127.28 86.49,208.81 0,81.48 -33.19,155.98 -86.79,210.06 -18.47,18.63 -39.36,34.83 -62.15,48.06zm-1235.53 96.21l100.88 0c151.7,0 244.35,-76.88 283.98,-175.6 15.85,-39.47 23.55,-82.45 23.46,-125.49 -0.08,-43.15 -8.04,-86.42 -23.48,-126.34 -38.84,-100.46 -126.4,-179.21 -256.79,-179.21 -101.29,0 -183.65,39.57 -240.47,103.28 -57.76,64.76 -90.02,154.82 -90.02,254.37l0 838.93 -84.66 0 0 -838.91c0,-120.41 39.97,-230.38 111.52,-310.61 72.48,-81.27 176.53,-131.72 303.61,-131.72 170.56,0 284.91,102.59 335.51,233.45 19.14,49.48 28.99,103.16 29.1,156.76 0.12,53.71 -9.54,107.44 -29.4,156.91 -51.64,128.65 -170.15,228.84 -362.36,228.84l-100.88 0 0 -84.66zm3635.62 -437.04c-49.45,-49.89 -107.94,-89.97 -172.52,-117.21 -61.9,-26.11 -129.84,-40.49 -201.26,-40.49 -148.39,0 -282.8,62.76 -380.11,164.21 -97.7,101.84 -158.14,242.8 -158.14,398.69 0,155.89 60.44,296.85 158.14,398.69 97.31,101.45 231.72,164.21 380.11,164.21 84.35,0 164.08,-20.2 234.94,-56.19 73.91,-37.54 138.37,-92.21 188.59,-159.02l67.46 50.6c-58.05,77.23 -132.57,140.42 -218.01,183.82 -82.54,41.92 -175.19,65.45 -272.98,65.45 -172.24,0 -328.16,-72.74 -440.95,-190.33 -112.42,-117.18 -181.96,-278.87 -181.96,-457.23 0,-178.36 69.54,-340.05 181.96,-457.23 112.79,-117.59 268.71,-190.33 440.95,-190.33 82.48,0 161.49,16.85 234,47.43 75,31.63 142.67,77.93 199.64,135.41l-59.86 59.52zm-4994.02 0c-49.45,-49.89 -107.94,-89.97 -172.52,-117.21 -61.9,-26.11 -129.84,-40.49 -201.26,-40.49 -148.39,0 -282.8,62.76 -380.11,164.21 -97.7,101.84 -158.14,242.8 -158.14,398.69 0,155.89 60.44,296.85 158.14,398.69 97.31,101.45 231.72,164.21 380.11,164.21 84.35,0 164.08,-20.2 234.94,-56.19 73.91,-37.54 138.37,-92.21 188.59,-159.02l67.46 50.6c-58.05,77.23 -132.57,140.42 -218.01,183.82 -82.54,41.92 -175.19,65.45 -272.98,65.45 -172.24,0 -328.16,-72.74 -440.95,-190.33 -112.42,-117.18 -181.96,-278.87 -181.96,-457.23 0,-178.36 69.54,-340.05 181.96,-457.23 112.79,-117.59 268.71,-190.33 440.95,-190.33 82.48,0 161.49,16.85 234,47.43 75,31.63 142.67,77.93 199.64,135.41l-59.86 59.52zm827.45 423.59l-463.53 0 0 163.29c0,101.24 41.33,193.17 107.96,259.8 66.64,66.64 158.59,107.97 259.81,107.97l115.76 0 0 84.66 -115.76 0c-124.58,0 -237.73,-50.82 -319.67,-132.77 -81.93,-81.93 -132.76,-195.05 -132.76,-319.66l0 -799.47 568.19 0 0 84.66 -483.53 0 0 466.86 463.53 0 0 84.66z"/>
  <path class="fil4" d="M10175.3 1896.42l254.11 0c81.53,0 155.37,33.06 208.8,86.49 53.43,53.43 86.49,127.28 86.49,208.81 0,81.46 -33.19,155.98 -86.79,210.07 -18.47,18.63 -39.35,34.83 -62.14,48.05 32.52,17.82 62.2,40.14 88.21,66.15 70.2,70.2 113.64,167.21 113.64,274.34 0,108.98 -35.66,207.95 -100.92,278.78 -62.34,67.65 -150.71,109.2 -259.89,109.2 -113.09,0 -208.1,-40.1 -278.86,-106.39 -74.2,-69.5 -120.91,-167.55 -133.05,-277.82l84 -9.26c9.93,90.26 47.48,169.88 106.93,225.56 55.37,51.87 130.59,83.25 220.98,83.25 83.89,0 151.04,-31.11 197.71,-81.76 50.72,-55.05 78.44,-133.71 78.44,-221.56 0,-83.76 -33.96,-159.6 -88.84,-214.48 -54.88,-54.88 -130.72,-88.84 -214.48,-88.84l-170.88 0 0 -84.66 170.88 0c14.16,0 28.14,0.77 41.91,2.25 57.18,-0.59 108.9,-24.4 146.5,-62.33 38.29,-38.64 61.99,-92.02 61.99,-150.55 0,-58.17 -23.58,-110.84 -61.69,-148.95 -38.11,-38.11 -90.78,-61.69 -148.94,-61.69l-254.11 0 0 -84.66zm-1121.57 679.6l665.88 0 0 -288.48c0,-91.51 -37.48,-174.75 -97.83,-235.11 -60.36,-60.36 -143.6,-97.84 -235.11,-97.84 -91.51,0 -174.75,37.48 -235.11,97.84 -60.35,60.36 -97.83,143.6 -97.83,235.11l0 288.48zm665.88 84.66l-665.88 0 0 475.31 -84.66 0 0 -848.45c0,-114.88 46.98,-219.31 122.63,-294.97 75.66,-75.66 180.09,-122.64 294.97,-122.64 114.88,0 219.31,46.98 294.97,122.64 75.65,75.66 122.63,180.09 122.63,294.97l0 848.45 -84.66 0 0 -475.31zm-939.91 -679.6l-222.22 0c-79.21,0 -151.16,32.33 -203.3,84.47 -52.14,52.14 -84.47,124.09 -84.47,203.3l0 867.14 -84.66 0 0 -867.14c0,-102.58 41.82,-195.71 109.27,-263.16 67.45,-67.45 160.58,-109.27 263.16,-109.27l222.22 0 0 84.66z"/>
 </g>
</svg>
